<svg width="40" height="40" viewBox="0 0 40 40" fill="none" xmlns="http://www.w3.org/2000/svg" xmlns:xlink="http://www.w3.org/1999/xlink">
<path d="M29.73,11.262L26.867,8.398L12.699,22.562L12.09,26.039L15.563,25.426L29.73,11.262Z" fill="#000000" fill-opacity="0.15"/>
<path d="M34.375,32.656L5.625,32.656C4.934,32.656 4.375,33.215 4.375,33.906L4.375,35.313C4.375,35.484 4.516,35.625 4.688,35.625L35.313,35.625C35.484,35.625 35.625,35.484 35.625,35.313L35.625,33.906C35.625,33.215 35.066,32.656 34.375,32.656ZM10.066,29.375C10.145,29.375 10.223,29.367 10.301,29.355L16.871,28.203C16.949,28.187 17.023,28.152 17.078,28.094L33.637,11.535C33.673,11.499 33.702,11.456 33.721,11.409C33.741,11.362 33.751,11.311 33.751,11.26C33.751,11.209 33.741,11.158 33.721,11.111C33.702,11.063 33.673,11.021 33.637,10.984L27.145,4.488C27.07,4.414 26.973,4.375 26.867,4.375C26.762,4.375 26.664,4.414 26.59,4.488L10.031,21.047C9.973,21.105 9.938,21.176 9.922,21.254L8.77,27.824C8.732,28.033 8.745,28.249 8.809,28.452C8.873,28.655 8.986,28.839 9.137,28.988C9.395,29.238 9.719,29.375 10.066,29.375ZM12.699,22.563L26.867,8.398L29.73,11.262L15.563,25.426L12.09,26.039L12.699,22.563Z" fill="#FFFFFF"/>
</svg>
