<svg width="126" height="124" viewBox="0 0 126 124" fill="none" xmlns="http://www.w3.org/2000/svg" xmlns:xlink="http://www.w3.org/1999/xlink">
<g filter="url(#filter127_667)">
<path d="M34.384,56.471C33.898,56.734 33.718,57.34 33.98,57.826C34.243,58.312 34.85,58.492 35.336,58.23L34.384,56.471ZM45.36,51.667L46.36,51.667C46.36,51.314 46.174,50.988 45.872,50.808C45.569,50.627 45.194,50.62 44.884,50.787L45.36,51.667ZM44.36,93C44.36,93.552 44.808,94 45.36,94C45.912,94 46.36,93.552 46.36,93L44.36,93ZM62.659,79.223C62.659,87.445 69.343,94 77.66,94L77.66,92C70.417,92 64.659,86.31 64.659,79.223L62.659,79.223ZM77.66,94C86.028,94 92.14,87.395 92.14,79.223L90.14,79.223C90.14,86.36 84.854,92 77.66,92L77.66,94ZM92.14,79.223L92.14,65.444L90.14,65.444L90.14,79.223L92.14,79.223ZM92.14,65.444C92.14,57.246 85.48,50.667 77.66,50.667L77.66,52.667C84.357,52.667 90.14,58.332 90.14,65.444L92.14,65.444ZM77.66,50.667C69.89,50.667 62.659,57.198 62.659,65.444L64.659,65.444C64.659,58.38 70.915,52.667 77.66,52.667L77.66,50.667ZM62.659,65.444L62.659,79.223L64.659,79.223L64.659,65.444L62.659,65.444ZM35.336,58.23L45.836,52.546L44.884,50.787L34.384,56.471L35.336,58.23ZM44.36,51.667L44.36,93L46.36,93L46.36,51.667L44.36,51.667Z" fill="#FFFFFF"/>
<path d="M90.875,28.417C90.875,31.416 88.4,33.875 85.313,33.875L85.313,35.875C89.474,35.875 92.875,32.551 92.875,28.417L90.875,28.417ZM85.313,33.875C82.225,33.875 79.75,31.416 79.75,28.417L77.75,28.417C77.75,32.551 81.151,35.875 85.313,35.875L85.313,33.875ZM79.75,28.417C79.75,25.417 82.225,22.958 85.313,22.958L85.313,20.958C81.151,20.958 77.75,24.282 77.75,28.417L79.75,28.417ZM85.313,22.958C88.4,22.958 90.875,25.417 90.875,28.417L92.875,28.417C92.875,24.282 89.474,20.958 85.313,20.958L85.313,22.958Z" fill="#FFFFFF"/>
<path d="M46.25,28.417C46.25,31.416 43.775,33.875 40.688,33.875L40.688,35.875C44.849,35.875 48.25,32.551 48.25,28.417L46.25,28.417ZM40.688,33.875C37.6,33.875 35.125,31.416 35.125,28.417L33.125,28.417C33.125,32.551 36.526,35.875 40.688,35.875L40.688,33.875ZM35.125,28.417C35.125,25.417 37.6,22.958 40.688,22.958L40.688,20.958C36.526,20.958 33.125,24.282 33.125,28.417L35.125,28.417ZM40.688,22.958C43.775,22.958 46.25,25.417 46.25,28.417L48.25,28.417C48.25,24.282 44.849,20.958 40.688,20.958L40.688,22.958Z" fill="#FFFFFF"/>
<path d="M24.938,15.208L101.063,15.208L101.063,13.208L24.938,13.208L24.938,15.208ZM101.063,15.208C106.324,15.208 110.563,19.402 110.563,24.542L112.563,24.542C112.563,18.267 107.399,13.208 101.063,13.208L101.063,15.208ZM110.563,24.542L110.563,99.458L112.563,99.458L112.563,24.542L110.563,24.542ZM110.563,99.458C110.563,104.598 106.324,108.792 101.063,108.792L101.063,110.792C107.399,110.792 112.563,105.732 112.563,99.458L110.563,99.458ZM101.063,108.792L24.938,108.792L24.938,110.792L101.063,110.792L101.063,108.792ZM24.938,108.792C19.676,108.792 15.438,104.598 15.438,99.458L13.438,99.458C13.438,105.732 18.601,110.792 24.938,110.792L24.938,108.792ZM15.438,99.458L15.438,24.542L13.438,24.542L13.438,99.458L15.438,99.458ZM15.438,24.542C15.438,19.402 19.676,15.208 24.938,15.208L24.938,13.208C18.601,13.208 13.438,18.267 13.438,24.542L15.438,24.542Z" fill="#FFFFFF"/>
</g>
<defs>
<filter id="filter127_667" x="-4" y="-4" width="71" height="70" filterUnits="userSpaceOnUse" color-interpolation-filters="sRGB">
<feFlood flood-opacity="0" result="BackgroundImageFix"/>
<feColorMatrix in="SourceAlpha" type="matrix" values="0 0 0 0 0 0 0 0 0 0 0 0 0 0 0 0 0 0 127 0" result="hardAlpha"/>
<feMorphology radius="0" operator="dilate" in="SourceAlpha" result="0dropshadow"/>
<feOffset dx="0" dy="4"/>
<feGaussianBlur stdDeviation="2"/>
<feComposite in2="hardAlpha" operator="out"/>
<feColorMatrix type="matrix" values="0 0 0 0 0 0 0 0 0 0 0 0 0 0 0 0 0 0 0.25 0"/>
<feBlend mode="normal" in2="BackgroundImageFix" result="0dropshadow"/>
<feBlend mode="normal" in="SourceGraphic" in2="0dropshadow" result="shape"/>
</filter>
</defs>
</svg>
