<svg width="28" height="28" viewBox="0 0 28 28" fill="none" xmlns="http://www.w3.org/2000/svg" xmlns:xlink="http://www.w3.org/1999/xlink">
<path d="M8.167,12.833L10.5,12.833L10.5,15.167L8.167,15.167L8.167,12.833ZM8.167,17.5L10.5,17.5L10.5,19.833L8.167,19.833L8.167,17.5ZM12.833,12.833L15.167,12.833L15.167,15.167L12.833,15.167L12.833,12.833ZM12.833,17.5L15.167,17.5L15.167,19.833L12.833,19.833L12.833,17.5ZM17.5,12.833L19.833,12.833L19.833,15.167L17.5,15.167L17.5,12.833ZM17.5,17.5L19.833,17.5L19.833,19.833L17.5,19.833L17.5,17.5Z" fill="#000000"/>
<path d="M5.833,25.667L22.167,25.667C23.453,25.667 24.5,24.62 24.5,23.333L24.5,7C24.5,5.713 23.453,4.667 22.167,4.667L19.833,4.667L19.833,2.333L17.5,2.333L17.5,4.667L10.5,4.667L10.5,2.333L8.167,2.333L8.167,4.667L5.833,4.667C4.547,4.667 3.5,5.713 3.5,7L3.5,23.333C3.5,24.62 4.547,25.667 5.833,25.667ZM22.167,9.333L22.168,23.333L5.833,23.333L5.833,9.333L22.167,9.333Z" fill="#000000"/>
</svg>
