<svg width="38" height="24" viewBox="0 0 38 24" fill="none" xmlns="http://www.w3.org/2000/svg" xmlns:xlink="http://www.w3.org/1999/xlink">
<path d="M37.4,1.364C37.4,0.098 36.445,-0.928 35.267,-0.928L33.133,-0.928C31.955,-0.928 31,0.098 31,1.364L31,21.232C31,22.498 31.955,23.524 33.133,23.524L35.267,23.524C36.445,23.524 37.4,22.498 37.4,21.232L37.4,1.364ZM22.532,3.962L24.665,3.962C25.843,3.962 26.798,5.013 26.798,6.31L26.798,21.177C26.798,22.473 25.843,23.524 24.665,23.524L22.532,23.524C21.354,23.524 20.398,22.473 20.398,21.177L20.398,6.31C20.398,5.013 21.354,3.962 22.532,3.962ZM13.868,9.26L11.735,9.26C10.557,9.26 9.602,10.325 9.602,11.638L9.602,21.147C9.602,22.46 10.557,23.524 11.735,23.524L13.868,23.524C15.046,23.524 16.002,22.46 16.002,21.147L16.002,11.638C16.002,10.325 15.046,9.26 13.868,9.26ZM3.267,14.151L1.133,14.151C-0.045,14.151 -1,15.2 -1,16.494L-1,21.181C-1,22.475 -0.045,23.524 1.133,23.524L3.267,23.524C4.445,23.524 5.4,22.475 5.4,21.181L5.4,16.494C5.4,15.2 4.445,14.151 3.267,14.151Z" clip-rule="evenodd" fill-rule="evenodd" fill="#000000"/>
</svg>
