<svg width="40" height="24" viewBox="0 0 40 24" fill="none" xmlns="http://www.w3.org/2000/svg" xmlns:xlink="http://www.w3.org/1999/xlink">
<path d="M39.4,1.364C39.4,0.098 38.445,-0.928 37.267,-0.928L35.133,-0.928C33.955,-0.928 33,0.098 33,1.364L33,21.232C33,22.498 33.955,23.524 35.133,23.524L37.267,23.524C38.445,23.524 39.4,22.498 39.4,21.232L39.4,1.364ZM24.532,3.962L26.665,3.962C27.843,3.962 28.798,5.013 28.798,6.31L28.798,21.177C28.798,22.473 27.843,23.524 26.665,23.524L24.532,23.524C23.354,23.524 22.398,22.473 22.398,21.177L22.398,6.31C22.398,5.013 23.354,3.962 24.532,3.962ZM15.868,9.26L13.735,9.26C12.557,9.26 11.602,10.325 11.602,11.638L11.602,21.147C11.602,22.46 12.557,23.524 13.735,23.524L15.868,23.524C17.046,23.524 18.002,22.46 18.002,21.147L18.002,11.638C18.002,10.325 17.046,9.26 15.868,9.26ZM5.267,14.151L3.133,14.151C1.955,14.151 1,15.2 1,16.494L1,21.181C1,22.475 1.955,23.524 3.133,23.524L5.267,23.524C6.445,23.524 7.4,22.475 7.4,21.181L7.4,16.494C7.4,15.2 6.445,14.151 5.267,14.151Z" clip-rule="evenodd" fill-rule="evenodd" fill="#000000"/>
</svg>
