<svg width="108" height="156" viewBox="0 0 108 156" fill="none" xmlns="http://www.w3.org/2000/svg" xmlns:xlink="http://www.w3.org/1999/xlink">
<line x1="0" y1="80" x2="108" y2="80" stroke="#000000" stroke-opacity="0.81" stroke-width="2" stroke-miterlimit="3.999327"/>
<path d="M54.704,0.02C36.976,0.02 38.083,7.738 38.083,7.738L38.103,15.734L55.02,15.734L55.02,18.134L31.383,18.134C31.383,18.134 20.04,16.843 20.04,34.8C20.04,52.757 29.941,52.12 29.941,52.12L35.85,52.12L35.85,43.787C35.85,43.787 35.531,33.847 45.593,33.847L62.372,33.847C62.372,33.847 71.798,34 71.798,24.701L71.798,9.325C71.798,9.325 73.23,0.02 54.704,0.02ZM45.376,5.397C45.775,5.397 46.171,5.475 46.541,5.629C46.91,5.782 47.246,6.007 47.528,6.291C47.811,6.575 48.035,6.912 48.188,7.283C48.341,7.653 48.419,8.051 48.419,8.452C48.419,8.853 48.341,9.251 48.188,9.622C48.035,9.993 47.811,10.33 47.528,10.613C47.246,10.897 46.91,11.122 46.541,11.276C46.171,11.429 45.775,11.508 45.376,11.507C44.976,11.508 44.58,11.429 44.21,11.276C43.841,11.122 43.505,10.897 43.223,10.613C42.94,10.33 42.716,9.993 42.563,9.622C42.41,9.251 42.332,8.853 42.332,8.452C42.332,8.051 42.41,7.653 42.563,7.283C42.716,6.912 42.94,6.575 43.223,6.291C43.505,6.007 43.841,5.782 44.21,5.629C44.58,5.475 44.976,5.397 45.376,5.397Z" fill="url(#pf_0_130_106)"/>
<path d="M55.207,69.76C72.935,69.76 71.828,62.042 71.828,62.042L71.808,54.047L54.891,54.047L54.891,51.646L78.527,51.646C78.527,51.646 89.871,52.938 89.871,34.98C89.871,17.023 79.97,17.66 79.97,17.66L74.061,17.66L74.061,25.992C74.061,25.992 74.379,35.932 64.317,35.932L47.539,35.932C47.539,35.932 38.112,35.779 38.112,45.079L38.112,60.455C38.112,60.455 36.681,69.76 55.207,69.76M64.535,64.384C64.135,64.384 63.739,64.305 63.37,64.152C63,63.998 62.665,63.773 62.382,63.49C62.099,63.206 61.875,62.869 61.722,62.498C61.57,62.127 61.491,61.73 61.491,61.328C61.491,60.927 61.57,60.529 61.722,60.159C61.875,59.788 62.099,59.451 62.382,59.167C62.665,58.883 63,58.658 63.37,58.505C63.739,58.351 64.135,58.272 64.535,58.273C64.935,58.272 65.331,58.351 65.7,58.505C66.069,58.658 66.405,58.883 66.688,59.167C66.97,59.451 67.194,59.788 67.347,60.158C67.5,60.529 67.579,60.927 67.578,61.328C67.579,61.729 67.5,62.127 67.347,62.498C67.194,62.869 66.97,63.206 66.688,63.489C66.405,63.773 66.069,63.998 65.7,64.152C65.331,64.305 64.935,64.384 64.535,64.384Z" fill="url(#pf_0_130_107)"/>
<path d="M46.041,139.659C46.041,139.659 43.434,141.176 47.898,141.688C53.308,142.306 56.072,142.218 62.032,141.091C62.032,141.091 63.602,142.073 65.791,142.924C52.426,148.649 35.544,142.592 46.041,139.659ZM44.407,132.186C44.407,132.186 41.482,134.351 45.95,134.814C51.729,135.411 56.292,135.459 64.191,133.939C64.191,133.939 65.281,135.046 66.997,135.651C50.842,140.376 32.847,136.023 44.407,132.186Z" fill="#001AFF"/>
<path d="M58.173,119.508C61.468,123.3 57.309,126.71 57.309,126.71C57.309,126.71 65.67,122.395 61.831,116.988C58.244,111.949 55.494,109.446 70.381,100.812C70.381,100.812 47.013,106.647 58.173,119.508Z" fill="#FF0001"/>
<path d="M75.849,145.188C75.849,145.188 77.778,146.779 73.722,148.009C66.01,150.345 41.617,151.05 34.843,148.103C32.409,147.043 36.975,145.573 38.412,145.263C39.91,144.939 40.765,144.998 40.765,144.998C38.056,143.091 23.258,148.744 33.249,150.366C60.495,154.782 82.915,148.377 75.849,145.188ZM47.296,124.442C47.296,124.442 34.889,127.389 42.903,128.46C46.287,128.913 53.03,128.809 59.315,128.282C64.45,127.851 69.603,126.929 69.603,126.929C69.603,126.929 67.794,127.705 66.484,128.599C53.883,131.913 29.546,130.37 36.553,126.981C42.477,124.116 47.296,124.442 47.296,124.442ZM69.552,136.882C82.36,130.228 76.438,123.833 72.304,124.695C71.293,124.905 70.84,125.088 70.84,125.088C70.84,125.088 71.216,124.498 71.933,124.245C80.111,121.371 86.399,132.723 69.296,137.219C69.296,137.218 69.492,137.04 69.552,136.882Z" fill="#001AFF"/>
<path d="M61.831,86.868C61.831,86.868 68.923,93.964 55.103,104.873C44.02,113.626 52.576,118.616 55.099,124.319C48.629,118.482 43.883,113.343 47.066,108.561C51.741,101.542 64.692,98.138 61.831,86.868Z" fill="#FF0001"/>
<path d="M48.555,154.918C60.846,155.704 79.726,154.48 80.173,148.664C80.173,148.664 79.314,150.869 70.014,152.618C59.522,154.593 46.578,154.363 38.904,153.096C38.904,153.097 40.476,154.398 48.555,154.918Z" fill="#001AFF"/>
<defs>
<linearGradient id="pf_0_130_106" x1="691.113" y1="627.292" x2="4144.096" y2="4074.556" gradientUnits="userSpaceOnUse">
<stop stop-color="#387EB8"/>
<stop offset="1" stop-color="#366994"/>
</linearGradient>
<linearGradient id="pf_0_130_107" x1="1028.617" y1="1089.892" x2="4737.102" y2="4625.107" gradientUnits="userSpaceOnUse">
<stop stop-color="#FFE052"/>
<stop offset="1" stop-color="#FFC331"/>
</linearGradient>
</defs>
</svg>
