<svg width="44" height="44" viewBox="0 0 44 44" fill="none" xmlns="http://www.w3.org/2000/svg" xmlns:xlink="http://www.w3.org/1999/xlink">
<path d="M40.098,1.66L3.905,1.66C2.665,1.66 1.66,2.665 1.66,3.905L1.66,40.099C1.66,41.338 2.665,42.343 3.905,42.343L40.098,42.343C41.338,42.343 42.343,41.338 42.343,40.099L42.343,3.905C42.343,2.665 41.338,1.66 40.098,1.66Z" fill="#3D5A98"/>
<path d="M29.728,42.34L29.728,26.586L35.014,26.586L35.805,20.446L29.728,20.446L29.728,16.527C29.728,14.75 30.223,13.537 32.77,13.537L36.022,13.537L36.022,8.037C34.447,7.873 32.864,7.795 31.281,7.803C26.599,7.803 23.375,10.656 23.375,15.919L23.375,20.446L18.088,20.446L18.088,26.586L23.375,26.586L23.375,42.34L29.728,42.34Z" fill="#FFFFFF"/>
</svg>
