<svg width="44" height="44" viewBox="0 0 44 44" fill="none" xmlns="http://www.w3.org/2000/svg" xmlns:xlink="http://www.w3.org/1999/xlink">
<path d="M39.875,1.031L4.125,1.031C3.314,1.023 2.533,1.337 1.953,1.904C1.373,2.471 1.041,3.245 1.031,4.056L1.031,39.951C1.043,40.76 1.375,41.533 1.955,42.098C2.535,42.664 3.315,42.977 4.125,42.969L39.875,42.969C40.686,42.975 41.467,42.66 42.047,42.093C42.626,41.525 42.958,40.751 42.969,39.94L42.969,4.046C42.954,3.237 42.621,2.467 42.042,1.902C41.463,1.338 40.684,1.025 39.875,1.031Z" fill="#0076B2"/>
<path d="M7.239,16.751L13.465,16.751L13.465,36.781L7.239,36.781L7.239,16.751ZM10.354,6.782C11.068,6.782 11.766,6.994 12.359,7.391C12.953,7.787 13.416,8.351 13.689,9.011C13.962,9.671 14.033,10.397 13.894,11.097C13.754,11.797 13.41,12.44 12.905,12.945C12.4,13.45 11.756,13.793 11.056,13.932C10.355,14.071 9.63,13.999 8.97,13.725C8.311,13.451 7.747,12.988 7.351,12.394C6.955,11.8 6.744,11.102 6.744,10.388C6.745,9.431 7.126,8.514 7.803,7.838C8.48,7.162 9.397,6.782 10.354,6.782ZM17.37,16.751L23.337,16.751L23.337,19.501L23.42,19.501C24.252,17.927 26.28,16.266 29.308,16.266C35.613,16.252 36.781,20.402 36.781,25.781L36.781,36.781L30.556,36.781L30.556,27.036C30.556,24.716 30.515,21.728 27.321,21.728C24.128,21.728 23.585,24.258 23.585,26.885L23.585,36.781L17.37,36.781L17.37,16.751Z" fill="#FFFFFF"/>
</svg>
