<svg width="862" height="470" viewBox="0 0 862 470" fill="none" xmlns="http://www.w3.org/2000/svg" xmlns:xlink="http://www.w3.org/1999/xlink">
<g filter="url(#filter43_98)">
<rect  x="0" y="0" width="862" height="356" fill="#FFFFFF" fill-opacity="0.51"/>
</g>
<g filter="url(#filter43_99)">
<circle cx="430" cy="320" r="150" fill="url(#pattern_0_43_99)" stroke="url(#ps_0_43_99)" stroke-width="2" stroke-miterlimit="3.999327"/>
</g>
<circle cx="533" cy="421" r="25" fill="#B9CAE8" stroke="#B9CAE8" stroke-width="3" stroke-miterlimit="3.999327"/>
<path d="M549.514,413.023C548.959,411.114 547.932,409.377 546.529,407.971C545.126,406.566 543.392,405.537 541.486,404.982C540.967,404.847 540.422,404.847 539.903,404.982C539.381,405.134 538.906,405.418 538.525,405.806L534.995,409.359L519.89,424.474C519.414,424.97 519.104,425.602 519.003,426.282L518.037,432.88C517.963,433.374 518.001,433.878 518.148,434.355C518.309,434.831 518.575,435.264 518.924,435.624C519.278,435.976 519.706,436.245 520.175,436.417C520.502,436.525 520.844,436.577 521.188,436.575L521.647,436.575L528.234,435.608C528.921,435.519 529.561,435.207 530.055,434.72L545.175,419.573L548.69,416.068C549.087,415.68 549.374,415.194 549.524,414.66C549.674,414.125 549.682,413.561 549.545,413.023L549.514,413.023ZM547.202,414.022C547.159,414.155 547.083,414.275 546.98,414.371L544.305,417.051L537.465,410.216L540.172,407.503C540.276,407.408 540.401,407.337 540.536,407.297L540.9,407.297C542.399,407.744 543.764,408.558 544.869,409.666C545.975,410.773 546.788,412.14 547.234,413.641C547.25,413.769 547.24,413.899 547.202,414.022Z" fill="#000000"/>
<defs>
<filter id="filter43_98" x="-4" y="-4" width="439" height="186" filterUnits="userSpaceOnUse" color-interpolation-filters="sRGB">
<feFlood flood-opacity="0" result="BackgroundImageFix"/>
<feColorMatrix in="SourceAlpha" type="matrix" values="0 0 0 0 0 0 0 0 0 0 0 0 0 0 0 0 0 0 127 0" result="hardAlpha"/>
<feMorphology radius="0" operator="dilate" in="SourceAlpha" result="0dropshadow"/>
<feOffset dx="0" dy="4"/>
<feGaussianBlur stdDeviation="2"/>
<feComposite in2="hardAlpha" operator="out"/>
<feColorMatrix type="matrix" values="0 0 0 0 0 0 0 0 0 0 0 0 0 0 0 0 0 0 0.25 0"/>
<feBlend mode="normal" in2="BackgroundImageFix" result="0dropshadow"/>
<feBlend mode="normal" in="SourceGraphic" in2="0dropshadow" result="shape"/>
</filter>
<filter id="filter43_99" x="276" y="166" width="158" height="158" filterUnits="userSpaceOnUse" color-interpolation-filters="sRGB">
<feFlood flood-opacity="0" result="BackgroundImageFix"/>
<feColorMatrix in="SourceAlpha" type="matrix" values="0 0 0 0 0 0 0 0 0 0 0 0 0 0 0 0 0 0 127 0" result="hardAlpha"/>
<feMorphology radius="0" operator="dilate" in="SourceAlpha" result="0dropshadow"/>
<feOffset dx="0" dy="4"/>
<feGaussianBlur stdDeviation="2"/>
<feComposite in2="hardAlpha" operator="out"/>
<feColorMatrix type="matrix" values="0 0 0 0 0 0 0 0 0 0 0 0 0 0 0 0 0 0 0.25 0"/>
<feBlend mode="normal" in2="BackgroundImageFix" result="0dropshadow"/>
<feBlend mode="normal" in="SourceGraphic" in2="0dropshadow" result="shape"/>
</filter>
</defs>
</svg>
