<svg width="34" height="22" viewBox="0 0 34 22" fill="none" xmlns="http://www.w3.org/2000/svg" xmlns:xlink="http://www.w3.org/1999/xlink">
<path d="M33,1.667C33,0.562 32.105,-0.333 31,-0.333C29.895,-0.333 29,0.562 29,1.667L33,1.667ZM31,11.667L31,13.667C32.105,13.667 33,12.771 33,11.667L31,11.667ZM21,9.667C19.895,9.667 19,10.562 19,11.667C19,12.771 19.895,13.667 21,13.667L21,9.667ZM29,1.667L29,11.667L33,11.667L33,1.667L29,1.667ZM31,9.667L21,9.667L21,13.667L31,13.667L31,9.667Z" fill="#FFFEFE"/>
<path d="M-1,18.333C-1,19.438 -0.105,20.333 1,20.333C2.105,20.333 3,19.438 3,18.333L-1,18.333ZM16,3.333L16.002,1.333L16,1.333L16,3.333ZM26,7.166L27.338,5.68L27.335,5.677L26,7.166ZM29.662,13.153C30.483,13.892 31.748,13.825 32.487,13.004C33.226,12.183 33.159,10.919 32.338,10.18L29.662,13.153ZM3,18.333C3,14.885 4.37,11.579 6.808,9.141L3.979,6.312C0.791,9.5 -1,13.824 -1,18.333L3,18.333ZM6.808,9.141C9.246,6.703 12.552,5.333 16,5.333L16,1.333C11.491,1.333 7.167,3.124 3.979,6.312L6.808,9.141ZM15.998,5.333C19.197,5.336 22.283,6.519 24.665,8.655L27.335,5.677C24.221,2.884 20.186,1.337 16.002,1.333L15.998,5.333ZM24.662,8.653L29.662,13.153L32.338,10.18L27.338,5.68L24.662,8.653Z" fill="#FFFEFE"/>
</svg>
