<svg width="44" height="44" viewBox="0 0 44 44" fill="none" xmlns="http://www.w3.org/2000/svg" xmlns:xlink="http://www.w3.org/1999/xlink">
<path d="M33.688,0L10.313,0C4.617,0 0,4.617 0,10.313L0,33.688C0,39.383 4.617,44 10.313,44L33.688,44C39.383,44 44,39.383 44,33.688L44,10.313C44,4.617 39.383,0 33.688,0Z" fill="#FFFFFF"/>
<path d="M33.688,0L10.313,0C4.617,0 0,4.617 0,10.313L0,33.688C0,39.383 4.617,44 10.313,44L33.688,44C39.383,44 44,39.383 44,33.688L44,10.313C44,4.617 39.383,0 33.688,0Z" fill="#1D9BF0"/>
<path d="M34.301,15.711C34.32,15.984 34.32,16.257 34.32,16.532C34.32,24.919 27.935,34.592 16.261,34.592L16.261,34.587C12.812,34.592 9.434,33.604 6.531,31.741C7.033,31.802 7.537,31.832 8.042,31.833C10.901,31.835 13.677,30.877 15.925,29.111C14.601,29.086 13.317,28.647 12.254,27.857C11.191,27.067 10.401,25.964 9.995,24.703C10.946,24.886 11.927,24.849 12.861,24.594C9.9,23.995 7.769,21.394 7.769,18.372L7.769,18.292C8.652,18.783 9.64,19.056 10.65,19.086C7.861,17.222 7.001,13.512 8.685,10.611C10.279,12.572 12.267,14.176 14.521,15.318C16.774,16.461 19.243,17.116 21.767,17.242C21.515,16.159 21.552,15.029 21.875,13.965C22.197,12.9 22.793,11.939 23.603,11.178C26.16,8.775 30.18,8.898 32.583,11.453C34.005,11.172 35.368,10.651 36.614,9.912C36.14,11.382 35.149,12.629 33.824,13.423C35.082,13.274 36.311,12.937 37.469,12.423C36.617,13.699 35.544,14.812 34.301,15.711Z" fill="#FFFFFF"/>
</svg>
