<svg width="74" height="56" viewBox="0 0 74 56" fill="none" xmlns="http://www.w3.org/2000/svg" xmlns:xlink="http://www.w3.org/1999/xlink">
<path d="M26.667,27.3C34.033,27.3 40,21.192 40,13.65C40,6.108 34.033,0 26.667,0C19.3,0 13.333,6.108 13.333,13.65C13.333,21.192 19.3,27.3 26.667,27.3ZM26.667,34.125C17.767,34.125 0,38.698 0,47.775L0,54.6L53.333,54.6L53.333,47.775C53.333,38.698 35.567,34.125 26.667,34.125Z" fill="#CCCCCC"/>
<path d="M65.667,28.324L55.667,28.324L55.667,38.561L52.333,38.561L52.333,28.324L42.333,28.324L42.333,24.911L52.333,24.911L52.333,14.674L55.667,14.674L55.667,24.911L65.667,24.911L65.667,28.324Z" fill="#CCCCCC"/>
</svg>
