<svg width="44" height="40" viewBox="0 0 44 40" fill="none" xmlns="http://www.w3.org/2000/svg" xmlns:xlink="http://www.w3.org/1999/xlink">
<path d="M42,37.636L42,39.636L44,39.636L44,37.636L42,37.636ZM22,7.428L37,7.428L37,3.428L22,3.428L22,7.428ZM37,7.428C38.372,7.428 40,8.846 40,11.284L44,11.284C44,7.253 41.151,3.428 37,3.428L37,7.428ZM40,11.284L40,37.636L44,37.636L44,11.284L40,11.284ZM42,35.636L22,35.636L22,39.636L42,39.636L42,35.636Z" fill="#000000"/>
<path d="M2,37.636L0,37.636L0,39.636L2,39.636L2,37.636ZM22,35.636L2,35.636L2,39.636L22,39.636L22,35.636ZM4,37.636L4,11.284L0,11.284L0,37.636L4,37.636ZM4,11.284C4,8.846 5.628,7.428 7,7.428L7,3.428C2.849,3.428 0,7.253 0,11.284L4,11.284ZM7,7.428L22,7.428L22,3.428L7,3.428L7,7.428Z" fill="#000000"/>
<line x1="20" y1="-0.428" x2="20" y2="5.428" stroke="#000000" stroke-width="2" stroke-miterlimit="3.999327" stroke-linecap="round" stroke-linejoin="round"/>
<path d="M13.25,17.14L14.934,16.061L13.25,13.431L11.566,16.061L13.25,17.14ZM30.75,17.14L32.434,16.061L30.75,13.431L29.066,16.061L30.75,17.14ZM2,24.996L4.5,24.996L4.5,20.996L2,20.996L2,24.996ZM4.5,24.996C7.765,24.996 10.429,23.11 12.117,21.527C12.992,20.708 13.686,19.895 14.161,19.288C14.4,18.982 14.587,18.725 14.717,18.54C14.782,18.447 14.833,18.372 14.869,18.317C14.887,18.29 14.902,18.268 14.913,18.251C14.918,18.243 14.923,18.236 14.926,18.231C14.928,18.228 14.93,18.225 14.931,18.223C14.932,18.222 14.932,18.221 14.933,18.221C14.933,18.22 14.933,18.22 14.934,18.219C14.934,18.219 14.934,18.218 13.25,17.14C11.566,16.061 11.566,16.061 11.566,16.06C11.566,16.06 11.567,16.06 11.567,16.06C11.567,16.059 11.567,16.059 11.568,16.058C11.568,16.058 11.568,16.057 11.568,16.057C11.568,16.058 11.567,16.059 11.565,16.062C11.562,16.067 11.555,16.078 11.544,16.094C11.523,16.125 11.489,16.176 11.442,16.243C11.347,16.378 11.202,16.578 11.011,16.822C10.627,17.313 10.07,17.964 9.383,18.608C7.946,19.954 6.235,20.996 4.5,20.996L4.5,24.996ZM13.25,17.14C11.566,18.218 11.566,18.219 11.566,18.219C11.567,18.22 11.567,18.22 11.567,18.221C11.568,18.221 11.568,18.222 11.569,18.223C11.57,18.225 11.572,18.228 11.574,18.231C11.577,18.236 11.582,18.243 11.587,18.251C11.598,18.268 11.613,18.29 11.631,18.317C11.667,18.372 11.718,18.447 11.783,18.54C11.913,18.725 12.1,18.982 12.339,19.288C12.814,19.895 13.508,20.708 14.383,21.527C16.071,23.11 18.735,24.996 22,24.996L22,20.996C20.265,20.996 18.554,19.954 17.117,18.608C16.43,17.964 15.873,17.313 15.489,16.822C15.298,16.578 15.153,16.378 15.058,16.243C15.011,16.176 14.977,16.125 14.956,16.094C14.945,16.078 14.938,16.067 14.935,16.062C14.933,16.059 14.932,16.058 14.932,16.057C14.932,16.057 14.932,16.058 14.932,16.058C14.933,16.059 14.933,16.059 14.933,16.06C14.933,16.06 14.934,16.06 14.934,16.06C14.934,16.061 14.934,16.061 13.25,17.14ZM22,24.996C25.265,24.996 27.929,23.11 29.617,21.527C30.492,20.708 31.186,19.895 31.661,19.288C31.9,18.982 32.087,18.725 32.217,18.54C32.282,18.447 32.333,18.372 32.369,18.317C32.387,18.29 32.402,18.268 32.413,18.251C32.418,18.243 32.423,18.236 32.426,18.231C32.428,18.228 32.43,18.225 32.431,18.223C32.432,18.222 32.432,18.221 32.433,18.221C32.433,18.22 32.433,18.22 32.434,18.219C32.434,18.219 32.434,18.218 30.75,17.14C29.066,16.061 29.066,16.061 29.066,16.06C29.066,16.06 29.067,16.06 29.067,16.06C29.067,16.059 29.067,16.059 29.068,16.058C29.068,16.058 29.068,16.057 29.068,16.057C29.068,16.058 29.067,16.059 29.065,16.062C29.062,16.067 29.055,16.078 29.044,16.094C29.023,16.125 28.989,16.176 28.942,16.243C28.847,16.378 28.702,16.578 28.511,16.822C28.127,17.313 27.57,17.964 26.883,18.608C25.446,19.954 23.735,20.996 22,20.996L22,24.996ZM30.75,17.14C29.066,18.218 29.066,18.219 29.066,18.219C29.067,18.22 29.067,18.22 29.067,18.221C29.068,18.221 29.068,18.222 29.069,18.223C29.07,18.225 29.072,18.228 29.074,18.231C29.077,18.236 29.082,18.243 29.087,18.251C29.098,18.268 29.113,18.29 29.131,18.317C29.167,18.372 29.218,18.447 29.283,18.54C29.413,18.725 29.6,18.982 29.839,19.288C30.314,19.895 31.008,20.708 31.883,21.527C33.571,23.11 36.235,24.996 39.5,24.996L39.5,20.996C37.765,20.996 36.054,19.954 34.617,18.608C33.93,17.964 33.373,17.313 32.989,16.822C32.798,16.578 32.653,16.378 32.558,16.243C32.511,16.176 32.477,16.125 32.456,16.094C32.445,16.078 32.438,16.067 32.435,16.062C32.433,16.059 32.432,16.058 32.432,16.057C32.432,16.057 32.432,16.058 32.432,16.058C32.433,16.059 32.433,16.059 32.433,16.06C32.433,16.06 32.434,16.06 32.434,16.06C32.434,16.061 32.434,16.061 30.75,17.14ZM39.5,24.996L42,24.996L42,20.996L39.5,20.996L39.5,24.996Z" fill="#000000"/>
</svg>
