<svg width="44" height="44" viewBox="0 0 44 44" fill="none" xmlns="http://www.w3.org/2000/svg" xmlns:xlink="http://www.w3.org/1999/xlink">
<path d="M33.688,0L10.313,0C4.617,0 0,4.617 0,10.313L0,33.688C0,39.383 4.617,44 10.313,44L33.688,44C39.383,44 44,39.383 44,33.688L44,10.313C44,4.617 39.383,0 33.688,0Z" fill="url(#pf_0_96_642)"/>
<path d="M33.688,0L10.313,0C4.617,0 0,4.617 0,10.313L0,33.688C0,39.383 4.617,44 10.313,44L33.688,44C39.383,44 44,39.383 44,33.688L44,10.313C44,4.617 39.383,0 33.688,0Z" fill="url(#pf_0_96_643)"/>
<path d="M22.002,4.813C17.334,4.813 16.748,4.833 14.915,4.916C13.085,5 11.836,5.29 10.743,5.715C9.612,6.154 8.654,6.741 7.698,7.697C6.742,8.652 6.155,9.611 5.715,10.741C5.288,11.834 4.998,13.084 4.916,14.913C4.834,16.746 4.813,17.332 4.813,22C4.813,26.668 4.833,27.252 4.916,29.085C5.001,30.915 5.29,32.164 5.715,33.257C6.154,34.388 6.741,35.346 7.697,36.302C8.652,37.258 9.611,37.846 10.741,38.285C11.834,38.711 13.084,39 14.913,39.084C16.746,39.167 17.332,39.188 21.999,39.188C26.668,39.188 27.252,39.167 29.085,39.084C30.915,39 32.165,38.711 33.259,38.285C34.389,37.846 35.347,37.258 36.301,36.302C37.257,35.346 37.845,34.388 38.285,33.258C38.708,32.164 38.998,30.915 39.084,29.086C39.166,27.253 39.188,26.668 39.188,22C39.188,17.332 39.166,16.746 39.084,14.913C38.998,13.083 38.708,11.834 38.285,10.742C37.845,9.611 37.257,8.652 36.301,7.697C35.345,6.741 34.389,6.153 33.258,5.715C32.162,5.29 30.912,5 29.083,4.916C27.249,4.833 26.666,4.813 21.996,4.813L22.002,4.813ZM20.46,7.91C20.917,7.909 21.428,7.91 22.002,7.91C26.591,7.91 27.134,7.926 28.947,8.009C30.623,8.085 31.532,8.365 32.138,8.601C32.94,8.912 33.512,9.285 34.113,9.886C34.715,10.488 35.087,11.061 35.399,11.863C35.635,12.468 35.915,13.377 35.991,15.053C36.074,16.865 36.092,17.409 36.092,21.996C36.092,26.583 36.074,27.128 35.991,28.939C35.915,30.615 35.635,31.525 35.399,32.13C35.088,32.932 34.715,33.503 34.113,34.104C33.512,34.706 32.94,35.078 32.138,35.39C31.533,35.626 30.623,35.905 28.947,35.982C27.135,36.064 26.591,36.082 22.002,36.082C17.412,36.082 16.868,36.064 15.056,35.982C13.381,35.905 12.471,35.625 11.865,35.39C11.063,35.078 10.49,34.706 9.888,34.104C9.287,33.502 8.914,32.931 8.602,32.129C8.367,31.523 8.086,30.614 8.01,28.938C7.928,27.126 7.911,26.582 7.911,21.992C7.911,17.402 7.928,16.861 8.01,15.049C8.087,13.373 8.367,12.464 8.602,11.858C8.914,11.056 9.287,10.483 9.888,9.881C10.49,9.28 11.063,8.907 11.865,8.595C12.471,8.359 13.381,8.079 15.056,8.002C16.642,7.931 17.256,7.909 20.46,7.906L20.46,7.91ZM31.176,10.764C30.037,10.764 29.114,11.687 29.114,12.825C29.114,13.964 30.037,14.888 31.176,14.888C32.315,14.888 33.239,13.964 33.239,12.825C33.239,11.687 32.315,10.763 31.176,10.763L31.176,10.764ZM22.002,13.174C17.127,13.174 13.175,17.126 13.175,22C13.175,26.875 17.127,30.825 22.002,30.825C26.876,30.825 30.827,26.875 30.827,22C30.827,17.126 26.876,13.174 22.001,13.174L22.002,13.174ZM22.002,16.271C25.166,16.271 27.731,18.836 27.731,22C27.731,25.164 25.166,27.73 22.002,27.73C18.838,27.73 16.272,25.164 16.272,22C16.272,18.836 18.837,16.271 22.002,16.271Z" fill="#FFFFFF"/>
<defs>
<radialGradient id="pf_0_96_642" cx="0" cy="0" r="1" gradientUnits="userSpaceOnUse" gradientTransform="matrix(0 -21.803633 20.279102 0 5.844 23.694)">
<stop stop-color="#FFDD55"/>
<stop offset="0.1" stop-color="#FFDD55"/>
<stop offset="0.5" stop-color="#FF543E"/>
<stop offset="1" stop-color="#C837AB"/>
</radialGradient>
<radialGradient id="pf_0_96_643" cx="0" cy="0" r="1" gradientUnits="userSpaceOnUse" gradientTransform="matrix(1.912927 9.556774 -39.393335 7.885149 -3.685 1.585)">
<stop stop-color="#3771C8"/>
<stop offset="0.128" stop-color="#3771C8"/>
<stop offset="1" stop-color="#6600FF" stop-opacity="0"/>
</radialGradient>
</defs>
</svg>
