<svg width="72" height="66" viewBox="0 0 72 66" fill="none" xmlns="http://www.w3.org/2000/svg" xmlns:xlink="http://www.w3.org/1999/xlink">
<path d="M36.77,13.058C36.561,12.873 36.283,12.77 35.993,12.77C35.703,12.77 35.425,12.873 35.216,13.058L9.337,35.911C9.227,36.008 9.14,36.125 9.08,36.254C9.021,36.383 8.99,36.523 8.99,36.663L8.986,58.111C8.986,59.214 9.46,60.272 10.303,61.052C11.147,61.832 12.291,62.27 13.484,62.27L26.993,62.27C27.589,62.27 28.161,62.051 28.583,61.661C29.005,61.271 29.242,60.742 29.242,60.191L29.242,42.518C29.242,42.243 29.36,41.978 29.571,41.783C29.782,41.588 30.068,41.479 30.366,41.479L41.611,41.479C41.91,41.479 42.196,41.588 42.407,41.783C42.618,41.978 42.736,42.243 42.736,42.518L42.736,60.191C42.736,60.742 42.973,61.271 43.395,61.661C43.817,62.051 44.389,62.27 44.985,62.27L58.488,62.27C59.681,62.27 60.825,61.832 61.669,61.052C62.512,60.272 62.986,59.214 62.986,58.111L62.986,36.663C62.986,36.523 62.955,36.383 62.896,36.254C62.836,36.125 62.749,36.008 62.639,35.911L36.77,13.058Z" fill="#CAD9FF"/>
<path d="M68.784,31.347L58.266,22.123L58.266,8.125C58.266,7.578 58.028,7.053 57.607,6.667C57.185,6.28 56.612,6.063 56.016,6.063L49.266,6.063C48.669,6.063 48.096,6.28 47.675,6.667C47.253,7.053 47.016,7.578 47.016,8.125L47.016,12.25L38.871,5.111C38.108,4.405 36.975,4 35.75,4C34.529,4 33.399,4.405 32.637,5.112L2.726,31.345C1.851,32.118 1.741,33.391 2.537,34.229C2.737,34.44 2.982,34.612 3.257,34.734C3.531,34.856 3.83,34.926 4.135,34.938C4.44,34.951 4.745,34.907 5.03,34.808C5.316,34.71 5.577,34.559 5.797,34.365L34.977,8.806C35.186,8.622 35.465,8.52 35.754,8.52C36.044,8.52 36.323,8.622 36.532,8.806L65.714,34.365C66.144,34.743 66.72,34.949 67.316,34.939C67.911,34.928 68.478,34.701 68.891,34.308C69.755,33.489 69.683,32.135 68.784,31.347Z" fill="#CAD9FF"/>
</svg>
