<svg width="72" height="66" viewBox="0 0 72 66" fill="none" xmlns="http://www.w3.org/2000/svg" xmlns:xlink="http://www.w3.org/1999/xlink">
<path d="M36.77,13.058C36.561,12.873 36.282,12.77 35.993,12.77C35.703,12.77 35.425,12.873 35.215,13.058L9.337,35.911C9.227,36.008 9.14,36.125 9.08,36.254C9.021,36.383 8.99,36.523 8.99,36.663L8.986,58.111C8.986,59.214 9.46,60.272 10.303,61.052C11.147,61.832 12.291,62.27 13.484,62.27L26.992,62.27C27.589,62.27 28.161,62.051 28.583,61.661C29.004,61.271 29.241,60.742 29.241,60.191L29.241,42.518C29.241,42.243 29.36,41.978 29.571,41.783C29.782,41.588 30.068,41.479 30.366,41.479L41.611,41.479C41.91,41.479 42.196,41.588 42.406,41.783C42.617,41.978 42.736,42.243 42.736,42.518L42.736,60.191C42.736,60.742 42.973,61.271 43.395,61.661C43.816,62.051 44.388,62.27 44.985,62.27L58.488,62.27C59.681,62.27 60.825,61.832 61.668,61.052C62.512,60.272 62.986,59.214 62.986,58.111L62.986,36.663C62.986,36.523 62.955,36.383 62.896,36.254C62.836,36.125 62.748,36.008 62.639,35.911L36.77,13.058Z" fill="#000000"/>
<path d="M69.034,31.472L58.516,22.248L58.516,8.25C58.516,7.703 58.278,7.178 57.857,6.792C57.435,6.405 56.862,6.188 56.266,6.188L49.516,6.188C48.919,6.188 48.346,6.405 47.925,6.792C47.503,7.178 47.266,7.703 47.266,8.25L47.266,12.375L39.121,5.236C38.358,4.53 37.225,4.125 36,4.125C34.779,4.125 33.649,4.53 32.887,5.237L2.976,31.47C2.101,32.243 1.991,33.516 2.787,34.354C2.987,34.565 3.232,34.737 3.507,34.859C3.781,34.981 4.08,35.051 4.385,35.063C4.69,35.076 4.995,35.032 5.28,34.933C5.566,34.835 5.827,34.684 6.047,34.49L35.227,8.931C35.436,8.747 35.715,8.645 36.004,8.645C36.294,8.645 36.573,8.747 36.782,8.931L65.964,34.49C66.394,34.868 66.97,35.074 67.566,35.064C68.161,35.053 68.728,34.826 69.141,34.433C70.005,33.614 69.933,32.26 69.034,31.472Z" fill="#000000"/>
</svg>
