<svg width="40" height="40" viewBox="0 0 40 40" fill="none" xmlns="http://www.w3.org/2000/svg" xmlns:xlink="http://www.w3.org/1999/xlink">
<path d="M0.854,19.761C0.853,23.121 1.738,26.403 3.421,29.295L0.693,39.178L10.885,36.526C13.704,38.049 16.863,38.847 20.073,38.847L20.081,38.847C30.677,38.847 39.303,30.291 39.307,19.776C39.309,14.68 37.311,9.888 33.681,6.283C30.051,2.679 25.224,0.693 20.081,0.69C9.483,0.69 0.858,9.245 0.854,19.761Z" fill="url(#pf_0_130_28)"/>
<path d="M0.167,19.754C0.166,23.236 1.083,26.635 2.826,29.631L0,39.868L10.558,37.121C13.467,38.695 16.742,39.524 20.075,39.526L20.084,39.526C31.06,39.526 39.995,30.662 40,19.77C40.002,14.491 37.932,9.528 34.172,5.793C30.411,2.06 25.411,0.002 20.084,0C9.106,0 0.172,8.862 0.167,19.754ZM6.455,29.115L6.061,28.494C4.403,25.88 3.529,22.858 3.53,19.756C3.533,10.702 10.959,3.336 20.09,3.336C24.512,3.338 28.667,5.049 31.793,8.152C34.919,11.256 36.638,15.381 36.637,19.769C36.633,28.822 29.207,36.189 20.084,36.189L20.077,36.189C17.106,36.188 14.193,35.396 11.652,33.9L11.047,33.544L4.782,35.174L6.455,29.115Z" fill="url(#pf_0_130_29)"/>
<path d="M15.106,11.496C14.733,10.674 14.341,10.657 13.986,10.643C13.696,10.63 13.364,10.631 13.033,10.631C12.701,10.631 12.162,10.755 11.706,11.249C11.249,11.743 9.964,12.937 9.964,15.367C9.964,17.796 11.747,20.144 11.996,20.474C12.245,20.803 15.438,25.948 20.497,27.927C24.7,29.572 25.556,29.245 26.468,29.162C27.381,29.08 29.412,27.968 29.827,26.815C30.242,25.662 30.242,24.674 30.117,24.467C29.993,24.262 29.661,24.138 29.164,23.891C28.666,23.644 26.219,22.45 25.763,22.285C25.307,22.12 24.975,22.038 24.643,22.533C24.311,23.026 23.358,24.138 23.068,24.467C22.778,24.797 22.487,24.839 21.99,24.592C21.492,24.344 19.889,23.823 17.988,22.141C16.508,20.832 15.51,19.216 15.219,18.722C14.929,18.228 15.188,17.96 15.438,17.714C15.661,17.493 15.936,17.138 16.185,16.849C16.433,16.561 16.516,16.355 16.682,16.026C16.848,15.696 16.764,15.408 16.64,15.161C16.516,14.914 15.549,12.472 15.106,11.496Z" fill="#FFFFFF"/>
<defs>
<linearGradient id="pf_0_130_28" x1="1931.42" y1="3849.45" x2="1931.42" y2="0.69" gradientUnits="userSpaceOnUse">
<stop stop-color="#1FAF38"/>
<stop offset="1" stop-color="#60D669"/>
</linearGradient>
<linearGradient id="pf_0_130_29" x1="2000" y1="3986.775" x2="2000" y2="0" gradientUnits="userSpaceOnUse">
<stop stop-color="#F9F9F9"/>
<stop offset="1" stop-color="#FFFFFF"/>
</linearGradient>
</defs>
</svg>
