<svg width="32" height="34" viewBox="0 0 32 34" fill="none" xmlns="http://www.w3.org/2000/svg" xmlns:xlink="http://www.w3.org/1999/xlink">
<path d="M5.044,4.003L16,1.417L26.956,4.003C27.252,4.073 27.517,4.248 27.707,4.5C27.896,4.751 28,5.064 28,5.386L28,19.534C28,20.934 27.675,22.311 27.053,23.545C26.432,24.779 25.533,25.83 24.437,26.606L16,32.583L7.563,26.606C6.467,25.83 5.569,24.779 4.947,23.546C4.326,22.312 4,20.935 4,19.536L4,5.386C4,5.064 4.104,4.751 4.293,4.5C4.483,4.248 4.748,4.073 5.044,4.003Z" fill="url(#pf_0_57_131)"/>
<path d="M17.036,10.18C17.004,10.101 16.952,10.035 16.886,9.988C16.821,9.941 16.744,9.917 16.667,9.917C16.589,9.917 16.513,9.941 16.447,9.988C16.382,10.035 16.33,10.101 16.297,10.18L15.128,12.996L12.359,13.362C12.282,13.372 12.209,13.406 12.149,13.461C12.089,13.516 12.044,13.589 12.02,13.671C11.996,13.754 11.994,13.842 12.013,13.926C12.033,14.009 12.073,14.085 12.131,14.144L14.179,16.249L13.635,19.292C13.62,19.377 13.627,19.465 13.655,19.545C13.684,19.626 13.732,19.696 13.795,19.747C13.858,19.797 13.933,19.827 14.01,19.832C14.088,19.837 14.165,19.818 14.233,19.775L16.667,18.26L19.1,19.775C19.168,19.818 19.246,19.838 19.323,19.833C19.401,19.828 19.476,19.798 19.539,19.747C19.602,19.696 19.65,19.626 19.679,19.545C19.707,19.465 19.714,19.377 19.699,19.292L19.155,16.25L21.203,14.144C21.26,14.085 21.301,14.009 21.32,13.926C21.34,13.842 21.337,13.754 21.313,13.671C21.289,13.589 21.245,13.516 21.184,13.461C21.124,13.406 21.051,13.372 20.974,13.362L18.204,12.996L17.036,10.18Z" clip-rule="evenodd" fill-rule="evenodd" fill="url(#pf_0_57_159)"/>
<path d="M4,21.958L3.2,21.958L3.2,22.189L3.322,22.384L4,21.958ZM5.333,24.083L4.656,24.509L4.697,24.575L4.751,24.632L5.333,24.083ZM6.667,25.5L6.084,26.048L6.13,26.097L6.183,26.137L6.667,25.5ZM16,32.583L15.516,33.221L15.975,33.569L16.451,33.244L16,32.583ZM25.333,26.208L25.333,25.408L25.086,25.408L24.882,25.548L25.333,26.208ZM28,21.958L28.724,22.299L28.8,22.137L28.8,21.958L28,21.958ZM28,5.667L28.8,5.667L28.8,5.488L28.724,5.326L28,5.667ZM27.333,4.25L28.057,3.909L28.003,3.794L27.916,3.702L27.333,4.25ZM26.667,3.542L27.249,2.993L27.078,2.811L26.833,2.759L26.667,3.542ZM23.333,2.833L23.111,3.602L23.139,3.61L23.167,3.616L23.333,2.833ZM16,0.708L16.223,-0.06L16.021,-0.119L15.816,-0.07L16,0.708ZM10,2.125L9.816,1.346L9.792,1.352L9.768,1.36L10,2.125ZM5.333,3.542L5.101,2.776L4.897,2.838L4.751,2.993L5.333,3.542ZM4,4.958L3.417,4.41L3.2,4.641L3.2,4.958L4,4.958ZM3.2,5.667C3.2,5.69 3.2,5.713 3.2,5.736C3.2,5.76 3.2,5.783 3.2,5.806C3.2,5.829 3.2,5.852 3.2,5.875C3.2,5.898 3.2,5.921 3.2,5.944C3.2,5.967 3.2,5.99 3.2,6.013C3.2,6.036 3.2,6.059 3.2,6.082C3.2,6.105 3.2,6.128 3.2,6.15C3.2,6.173 3.2,6.196 3.2,6.219C3.2,6.241 3.2,6.264 3.2,6.287C3.2,6.31 3.2,6.332 3.2,6.355C3.2,6.378 3.2,6.4 3.2,6.423C3.2,6.445 3.2,6.468 3.2,6.49C3.2,6.513 3.2,6.535 3.2,6.558C3.2,6.58 3.2,6.603 3.2,6.625C3.2,6.647 3.2,6.67 3.2,6.692C3.2,6.715 3.2,6.737 3.2,6.759C3.2,6.781 3.2,6.804 3.2,6.826C3.2,6.848 3.2,6.87 3.2,6.892C3.2,6.915 3.2,6.937 3.2,6.959C3.2,6.981 3.2,7.003 3.2,7.025C3.2,7.047 3.2,7.069 3.2,7.091C3.2,7.113 3.2,7.135 3.2,7.157C3.2,7.179 3.2,7.201 3.2,7.223C3.2,7.244 3.2,7.266 3.2,7.288C3.2,7.31 3.2,7.332 3.2,7.353C3.2,7.375 3.2,7.397 3.2,7.418C3.2,7.44 3.2,7.462 3.2,7.483C3.2,7.505 3.2,7.527 3.2,7.548C3.2,7.57 3.2,7.591 3.2,7.613C3.2,7.634 3.2,7.656 3.2,7.677C3.2,7.699 3.2,7.72 3.2,7.741C3.2,7.763 3.2,7.784 3.2,7.806C3.2,7.827 3.2,7.848 3.2,7.869C3.2,7.891 3.2,7.912 3.2,7.933C3.2,7.954 3.2,7.976 3.2,7.997C3.2,8.018 3.2,8.039 3.2,8.06C3.2,8.081 3.2,8.102 3.2,8.123C3.2,8.144 3.2,8.165 3.2,8.186C3.2,8.207 3.2,8.228 3.2,8.249C3.2,8.27 3.2,8.291 3.2,8.312C3.2,8.333 3.2,8.353 3.2,8.374C3.2,8.395 3.2,8.416 3.2,8.437C3.2,8.457 3.2,8.478 3.2,8.499C3.2,8.519 3.2,8.54 3.2,8.561C3.2,8.581 3.2,8.602 3.2,8.623C3.2,8.643 3.2,8.664 3.2,8.684C3.2,8.705 3.2,8.725 3.2,8.746C3.2,8.766 3.2,8.786 3.2,8.807C3.2,8.827 3.2,8.848 3.2,8.868C3.2,8.888 3.2,8.909 3.2,8.929C3.2,8.949 3.2,8.969 3.2,8.99C3.2,9.01 3.2,9.03 3.2,9.05C3.2,9.07 3.2,9.091 3.2,9.111C3.2,9.131 3.2,9.151 3.2,9.171C3.2,9.191 3.2,9.211 3.2,9.231C3.2,9.251 3.2,9.271 3.2,9.291C3.2,9.311 3.2,9.331 3.2,9.351C3.2,9.371 3.2,9.39 3.2,9.41C3.2,9.43 3.2,9.45 3.2,9.47C3.2,9.489 3.2,9.509 3.2,9.529C3.2,9.549 3.2,9.568 3.2,9.588C3.2,9.608 3.2,9.627 3.2,9.647C3.2,9.666 3.2,9.686 3.2,9.705C3.2,9.725 3.2,9.744 3.2,9.764C3.2,9.783 3.2,9.803 3.2,9.822C3.2,9.842 3.2,9.861 3.2,9.881C3.2,9.9 3.2,9.919 3.2,9.939C3.2,9.958 3.2,9.977 3.2,9.996C3.2,10.016 3.2,10.035 3.2,10.054C3.2,10.073 3.2,10.092 3.2,10.112C3.2,10.131 3.2,10.15 3.2,10.169C3.2,10.188 3.2,10.207 3.2,10.226C3.2,10.245 3.2,10.264 3.2,10.283C3.2,10.302 3.2,10.321 3.2,10.34C3.2,10.359 3.2,10.378 3.2,10.397C3.2,10.416 3.2,10.434 3.2,10.453C3.2,10.472 3.2,10.491 3.2,10.51C3.2,10.528 3.2,10.547 3.2,10.566C3.2,10.584 3.2,10.603 3.2,10.622C3.2,10.64 3.2,10.659 3.2,10.678C3.2,10.696 3.2,10.715 3.2,10.733C3.2,10.752 3.2,10.77 3.2,10.789C3.2,10.807 3.2,10.826 3.2,10.844C3.2,10.863 3.2,10.881 3.2,10.899C3.2,10.918 3.2,10.936 3.2,10.954C3.2,10.973 3.2,10.991 3.2,11.009C3.2,11.027 3.2,11.046 3.2,11.064C3.2,11.082 3.2,11.1 3.2,11.118C3.2,11.137 3.2,11.155 3.2,11.173C3.2,11.191 3.2,11.209 3.2,11.227C3.2,11.245 3.2,11.263 3.2,11.281C3.2,11.299 3.2,11.317 3.2,11.335C3.2,11.353 3.2,11.371 3.2,11.389C3.2,11.406 3.2,11.424 3.2,11.442C3.2,11.46 3.2,11.478 3.2,11.495C3.2,11.513 3.2,11.531 3.2,11.549C3.2,11.566 3.2,11.584 3.2,11.602C3.2,11.619 3.2,11.637 3.2,11.655C3.2,11.672 3.2,11.69 3.2,11.707C3.2,11.725 3.2,11.742 3.2,11.76C3.2,11.777 3.2,11.795 3.2,11.812C3.2,11.83 3.2,11.847 3.2,11.864C3.2,11.882 3.2,11.899 3.2,11.917C3.2,11.934 3.2,11.951 3.2,11.968C3.2,11.986 3.2,12.003 3.2,12.02C3.2,12.037 3.2,12.055 3.2,12.072C3.2,12.089 3.2,12.106 3.2,12.123C3.2,12.14 3.2,12.157 3.2,12.174C3.2,12.192 3.2,12.209 3.2,12.226C3.2,12.243 3.2,12.26 3.2,12.276C3.2,12.293 3.2,12.31 3.2,12.327C3.2,12.344 3.2,12.361 3.2,12.378C3.2,12.395 3.2,12.412 3.2,12.428C3.2,12.445 3.2,12.462 3.2,12.479C3.2,12.495 3.2,12.512 3.2,12.529C3.2,12.545 3.2,12.562 3.2,12.579C3.2,12.595 3.2,12.612 3.2,12.629C3.2,12.645 3.2,12.662 3.2,12.678C3.2,12.695 3.2,12.711 3.2,12.728C3.2,12.744 3.2,12.761 3.2,12.777C3.2,12.794 3.2,12.81 3.2,12.826C3.2,12.843 3.2,12.859 3.2,12.875C3.2,12.892 3.2,12.908 3.2,12.924C3.2,12.94 3.2,12.957 3.2,12.973C3.2,12.989 3.2,13.005 3.2,13.021C3.2,13.038 3.2,13.054 3.2,13.07C3.2,13.086 3.2,13.102 3.2,13.118C3.2,13.134 3.2,13.15 3.2,13.166C3.2,13.182 3.2,13.198 3.2,13.214C3.2,13.23 3.2,13.246 3.2,13.262C3.2,13.278 3.2,13.294 3.2,13.309C3.2,13.325 3.2,13.341 3.2,13.357C3.2,13.373 3.2,13.389 3.2,13.404C3.2,13.42 3.2,13.436 3.2,13.451C3.2,13.467 3.2,13.483 3.2,13.498C3.2,13.514 3.2,13.53 3.2,13.545C3.2,13.561 3.2,13.576 3.2,13.592C3.2,13.607 3.2,13.623 3.2,13.638C3.2,13.654 3.2,13.669 3.2,13.685C3.2,13.7 3.2,13.716 3.2,13.731C3.2,13.746 3.2,13.762 3.2,13.777C3.2,13.792 3.2,13.808 3.2,13.823C3.2,13.838 3.2,13.854 3.2,13.869C3.2,13.884 3.2,13.899 3.2,13.914C3.2,13.93 3.2,13.945 3.2,13.96C3.2,13.975 3.2,13.99 3.2,14.005C3.2,14.02 3.2,14.035 3.2,14.05C3.2,14.065 3.2,14.08 3.2,14.095C3.2,14.11 3.2,14.125 3.2,14.14C3.2,14.155 3.2,14.17 3.2,14.185C3.2,14.2 3.2,14.214 3.2,14.229C3.2,14.244 3.2,14.259 3.2,14.274C3.2,14.288 3.2,14.303 3.2,14.318C3.2,14.333 3.2,14.347 3.2,14.362C3.2,14.377 3.2,14.391 3.2,14.406C3.2,14.421 3.2,14.435 3.2,14.45C3.2,14.464 3.2,14.479 3.2,14.493C3.2,14.508 3.2,14.522 3.2,14.537C3.2,14.551 3.2,14.566 3.2,14.58C3.2,14.594 3.2,14.609 3.2,14.623C3.2,14.638 3.2,14.652 3.2,14.666C3.2,14.681 3.2,14.695 3.2,14.709C3.2,14.723 3.2,14.738 3.2,14.752C3.2,14.766 3.2,14.78 3.2,14.794C3.2,14.809 3.2,14.823 3.2,14.837C3.2,14.851 3.2,14.865 3.2,14.879C3.2,14.893 3.2,14.907 3.2,14.921C3.2,14.935 3.2,14.949 3.2,14.963C3.2,14.977 3.2,14.991 3.2,15.005C3.2,15.019 3.2,15.033 3.2,15.047C3.2,15.061 3.2,15.074 3.2,15.088C3.2,15.102 3.2,15.116 3.2,15.13C3.2,15.143 3.2,15.157 3.2,15.171C3.2,15.185 3.2,15.198 3.2,15.212C3.2,15.226 3.2,15.239 3.2,15.253C3.2,15.267 3.2,15.28 3.2,15.294C3.2,15.307 3.2,15.321 3.2,15.334C3.2,15.348 3.2,15.361 3.2,15.375C3.2,15.388 3.2,15.402 3.2,15.415C3.2,15.429 3.2,15.442 3.2,15.455C3.2,15.469 3.2,15.482 3.2,15.495C3.2,15.509 3.2,15.522 3.2,15.535C3.2,15.549 3.2,15.562 3.2,15.575C3.2,15.588 3.2,15.602 3.2,15.615C3.2,15.628 3.2,15.641 3.2,15.654C3.2,15.667 3.2,15.68 3.2,15.694C3.2,15.707 3.2,15.72 3.2,15.733C3.2,15.746 3.2,15.759 3.2,15.772C3.2,15.785 3.2,15.798 3.2,15.811C3.2,15.824 3.2,15.837 3.2,15.849C3.2,15.862 3.2,15.875 3.2,15.888C3.2,15.901 3.2,15.914 3.2,15.926C3.2,15.939 3.2,15.952 3.2,15.965C3.2,15.978 3.2,15.99 3.2,16.003C3.2,16.016 3.2,16.028 3.2,16.041C3.2,16.054 3.2,16.066 3.2,16.079C3.2,16.091 3.2,16.104 3.2,16.117C3.2,16.129 3.2,16.142 3.2,16.154C3.2,16.167 3.2,16.179 3.2,16.192C3.2,16.204 3.2,16.217 3.2,16.229C3.2,16.241 3.2,16.254 3.2,16.266C3.2,16.279 3.2,16.291 3.2,16.303C3.2,16.316 3.2,16.328 3.2,16.34C3.2,16.352 3.2,16.365 3.2,16.377C3.2,16.389 3.2,16.401 3.2,16.413C3.2,16.426 3.2,16.438 3.2,16.45C3.2,16.462 3.2,16.474 3.2,16.486C3.2,16.498 3.2,16.51 3.2,16.522C3.2,16.535 3.2,16.547 3.2,16.559C3.2,16.571 3.2,16.582 3.2,16.594C3.2,16.606 3.2,16.618 3.2,16.63C3.2,16.642 3.2,16.654 3.2,16.666C3.2,16.678 3.2,16.689 3.2,16.701C3.2,16.713 3.2,16.725 3.2,16.737C3.2,16.748 3.2,16.76 3.2,16.772C3.2,16.784 3.2,16.795 3.2,16.807C3.2,16.819 3.2,16.83 3.2,16.842C3.2,16.853 3.2,16.865 3.2,16.877C3.2,16.888 3.2,16.9 3.2,16.911C3.2,16.923 3.2,16.934 3.2,16.946C3.2,16.957 3.2,16.969 3.2,16.98C3.2,16.992 3.2,17.003 3.2,17.014C3.2,17.026 3.2,17.037 3.2,17.049C3.2,17.06 3.2,17.071 3.2,17.082C3.2,17.094 3.2,17.105 3.2,17.116C3.2,17.128 3.2,17.139 3.2,17.15C3.2,17.161 3.2,17.172 3.2,17.184C3.2,17.195 3.2,17.206 3.2,17.217C3.2,17.228 3.2,17.239 3.2,17.25C3.2,17.261 3.2,17.272 3.2,17.283C3.2,17.294 3.2,17.305 3.2,17.316C3.2,17.327 3.2,17.338 3.2,17.349C3.2,17.36 3.2,17.371 3.2,17.382C3.2,17.393 3.2,17.404 3.2,17.415C3.2,17.425 3.2,17.436 3.2,17.447C3.2,17.458 3.2,17.469 3.2,17.479C3.2,17.49 3.2,17.501 3.2,17.512C3.2,17.522 3.2,17.533 3.2,17.544C3.2,17.554 3.2,17.565 3.2,17.576C3.2,17.586 3.2,17.597 3.2,17.607C3.2,17.618 3.2,17.629 3.2,17.639C3.2,17.65 3.2,17.66 3.2,17.671C3.2,17.681 3.2,17.692 3.2,17.702C3.2,17.712 3.2,17.723 3.2,17.733C3.2,17.744 3.2,17.754 3.2,17.764C3.2,17.775 3.2,17.785 3.2,17.795C3.2,17.806 3.2,17.816 3.2,17.826C3.2,17.836 3.2,17.847 3.2,17.857C3.2,17.867 3.2,17.877 3.2,17.887C3.2,17.898 3.2,17.908 3.2,17.918C3.2,17.928 3.2,17.938 3.2,17.948C3.2,17.958 3.2,17.968 3.2,17.978C3.2,17.989 3.2,17.999 3.2,18.009C3.2,18.019 3.2,18.029 3.2,18.038C3.2,18.048 3.2,18.058 3.2,18.068C3.2,18.078 3.2,18.088 3.2,18.098C3.2,18.108 3.2,18.118 3.2,18.127C3.2,18.137 3.2,18.147 3.2,18.157C3.2,18.167 3.2,18.176 3.2,18.186C3.2,18.196 3.2,18.206 3.2,18.215C3.2,18.225 3.2,18.235 3.2,18.244C3.2,18.254 3.2,18.264 3.2,18.273C3.2,18.283 3.2,18.292 3.2,18.302C3.2,18.312 3.2,18.321 3.2,18.331C3.2,18.34 3.2,18.35 3.2,18.359C3.2,18.369 3.2,18.378 3.2,18.388C3.2,18.397 3.2,18.406 3.2,18.416C3.2,18.425 3.2,18.435 3.2,18.444C3.2,18.453 3.2,18.463 3.2,18.472C3.2,18.481 3.2,18.49 3.2,18.5C3.2,18.509 3.2,18.518 3.2,18.527C3.2,18.537 3.2,18.546 3.2,18.555C3.2,18.564 3.2,18.573 3.2,18.583C3.2,18.592 3.2,18.601 3.2,18.61C3.2,18.619 3.2,18.628 3.2,18.637C3.2,18.646 3.2,18.655 3.2,18.664C3.2,18.673 3.2,18.682 3.2,18.691C3.2,18.7 3.2,18.709 3.2,18.718C3.2,18.727 3.2,18.736 3.2,18.745C3.2,18.754 3.2,18.762 3.2,18.771C3.2,18.78 3.2,18.789 3.2,18.798C3.2,18.807 3.2,18.815 3.2,18.824C3.2,18.833 3.2,18.842 3.2,18.85C3.2,18.859 3.2,18.868 3.2,18.876C3.2,18.885 3.2,18.894 3.2,18.902C3.2,18.911 3.2,18.92 3.2,18.928C3.2,18.937 3.2,18.945 3.2,18.954C3.2,18.962 3.2,18.971 3.2,18.979C3.2,18.988 3.2,18.996 3.2,19.005C3.2,19.013 3.2,19.022 3.2,19.03C3.2,19.039 3.2,19.047 3.2,19.056C3.2,19.064 3.2,19.072 3.2,19.081C3.2,19.089 3.2,19.097 3.2,19.106C3.2,19.114 3.2,19.122 3.2,19.13C3.2,19.139 3.2,19.147 3.2,19.155C3.2,19.163 3.2,19.172 3.2,19.18C3.2,19.188 3.2,19.196 3.2,19.204C3.2,19.212 3.2,19.22 3.2,19.229C3.2,19.237 3.2,19.245 3.2,19.253C3.2,19.261 3.2,19.269 3.2,19.277C3.2,19.285 3.2,19.293 3.2,19.301C3.2,19.309 3.2,19.317 3.2,19.325C3.2,19.333 3.2,19.341 3.2,19.348C3.2,19.356 3.2,19.364 3.2,19.372C3.2,19.38 3.2,19.388 3.2,19.396C3.2,19.403 3.2,19.411 3.2,19.419C3.2,19.427 3.2,19.435 3.2,19.442C3.2,19.45 3.2,19.458 3.2,19.465C3.2,19.473 3.2,19.481 3.2,19.488C3.2,19.496 3.2,19.504 3.2,19.511C3.2,19.519 3.2,19.527 3.2,19.534C3.2,19.542 3.2,19.549 3.2,19.557C3.2,19.564 3.2,19.572 3.2,19.579C3.2,19.587 3.2,19.594 3.2,19.602C3.2,19.609 3.2,19.617 3.2,19.624C3.2,19.631 3.2,19.639 3.2,19.646C3.2,19.654 3.2,19.661 3.2,19.668C3.2,19.676 3.2,19.683 3.2,19.69C3.2,19.698 3.2,19.705 3.2,19.712C3.2,19.719 3.2,19.727 3.2,19.734C3.2,19.741 3.2,19.748 3.2,19.755C3.2,19.763 3.2,19.77 3.2,19.777C3.2,19.784 3.2,19.791 3.2,19.798C3.2,19.805 3.2,19.812 3.2,19.819C3.2,19.826 3.2,19.834 3.2,19.841C3.2,19.848 3.2,19.855 3.2,19.862C3.2,19.869 3.2,19.875 3.2,19.882C3.2,19.889 3.2,19.896 3.2,19.903C3.2,19.91 3.2,19.917 3.2,19.924C3.2,19.931 3.2,19.938 3.2,19.944C3.2,19.951 3.2,19.958 3.2,19.965C3.2,19.972 3.2,19.978 3.2,19.985C3.2,19.992 3.2,19.999 3.2,20.005C3.2,20.012 3.2,20.019 3.2,20.025C3.2,20.032 3.2,20.039 3.2,20.045C3.2,20.052 3.2,20.059 3.2,20.065C3.2,20.072 3.2,20.078 3.2,20.085C3.2,20.092 3.2,20.098 3.2,20.105C3.2,20.111 3.2,20.118 3.2,20.124C3.2,20.131 3.2,20.137 3.2,20.143C3.2,20.15 3.2,20.156 3.2,20.163C3.2,20.169 3.2,20.176 3.2,20.182C3.2,20.188 3.2,20.195 3.2,20.201C3.2,20.207 3.2,20.214 3.2,20.22C3.2,20.226 3.2,20.232 3.2,20.239C3.2,20.245 3.2,20.251 3.2,20.257C3.2,20.264 3.2,20.27 3.2,20.276C3.2,20.282 3.2,20.288 3.2,20.295C3.2,20.301 3.2,20.307 3.2,20.313C3.2,20.319 3.2,20.325 3.2,20.331C3.2,20.337 3.2,20.343 3.2,20.349C3.2,20.355 3.2,20.361 3.2,20.367C3.2,20.373 3.2,20.379 3.2,20.385C3.2,20.391 3.2,20.397 3.2,20.403C3.2,20.409 3.2,20.415 3.2,20.421C3.2,20.427 3.2,20.433 3.2,20.438C3.2,20.444 3.2,20.45 3.2,20.456C3.2,20.462 3.2,20.468 3.2,20.473C3.2,20.479 3.2,20.485 3.2,20.491C3.2,20.496 3.2,20.502 3.2,20.508C3.2,20.513 3.2,20.519 3.2,20.525C3.2,20.53 3.2,20.536 3.2,20.542C3.2,20.547 3.2,20.553 3.2,20.559C3.2,20.564 3.2,20.57 3.2,20.575C3.2,20.581 3.2,20.586 3.2,20.592C3.2,20.597 3.2,20.603 3.2,20.608C3.2,20.614 3.2,20.619 3.2,20.625C3.2,20.63 3.2,20.636 3.2,20.641C3.2,20.646 3.2,20.652 3.2,20.657C3.2,20.663 3.2,20.668 3.2,20.673C3.2,20.679 3.2,20.684 3.2,20.689C3.2,20.695 3.2,20.7 3.2,20.705C3.2,20.71 3.2,20.716 3.2,20.721C3.2,20.726 3.2,20.731 3.2,20.737C3.2,20.742 3.2,20.747 3.2,20.752C3.2,20.757 3.2,20.762 3.2,20.767C3.2,20.773 3.2,20.778 3.2,20.783C3.2,20.788 3.2,20.793 3.2,20.798C3.2,20.803 3.2,20.808 3.2,20.813C3.2,20.818 3.2,20.823 3.2,20.828C3.2,20.833 3.2,20.838 3.2,20.843C3.2,20.848 3.2,20.853 3.2,20.858C3.2,20.863 3.2,20.868 3.2,20.872C3.2,20.877 3.2,20.882 3.2,20.887C3.2,20.892 3.2,20.897 3.2,20.902C3.2,20.906 3.2,20.911 3.2,20.916C3.2,20.921 3.2,20.925 3.2,20.93C3.2,20.935 3.2,20.94 3.2,20.944C3.2,20.949 3.2,20.954 3.2,20.958C3.2,20.963 3.2,20.968 3.2,20.972C3.2,20.977 3.2,20.982 3.2,20.986C3.2,20.991 3.2,20.995 3.2,21C3.2,21.004 3.2,21.009 3.2,21.014C3.2,21.018 3.2,21.023 3.2,21.027C3.2,21.032 3.2,21.036 3.2,21.041C3.2,21.045 3.2,21.049 3.2,21.054C3.2,21.058 3.2,21.063 3.2,21.067C3.2,21.071 3.2,21.076 3.2,21.08C3.2,21.085 3.2,21.089 3.2,21.093C3.2,21.098 3.2,21.102 3.2,21.106C3.2,21.11 3.2,21.115 3.2,21.119C3.2,21.123 3.2,21.128 3.2,21.132C3.2,21.136 3.2,21.14 3.2,21.144C3.2,21.149 3.2,21.153 3.2,21.157C3.2,21.161 3.2,21.165 3.2,21.169C3.2,21.173 3.2,21.178 3.2,21.182C3.2,21.186 3.2,21.19 3.2,21.194C3.2,21.198 3.2,21.202 3.2,21.206C3.2,21.21 3.2,21.214 3.2,21.218C3.2,21.222 3.2,21.226 3.2,21.23C3.2,21.234 3.2,21.238 3.2,21.242C3.2,21.246 3.2,21.25 3.2,21.253C3.2,21.257 3.2,21.261 3.2,21.265C3.2,21.269 3.2,21.273 3.2,21.277C3.2,21.28 3.2,21.284 3.2,21.288C3.2,21.292 3.2,21.296 3.2,21.299C3.2,21.303 3.2,21.307 3.2,21.311C3.2,21.314 3.2,21.318 3.2,21.322C3.2,21.325 3.2,21.329 3.2,21.333C3.2,21.336 3.2,21.34 3.2,21.344C3.2,21.347 3.2,21.351 3.2,21.354C3.2,21.358 3.2,21.362 3.2,21.365C3.2,21.369 3.2,21.372 3.2,21.376C3.2,21.379 3.2,21.383 3.2,21.386C3.2,21.39 3.2,21.393 3.2,21.397C3.2,21.4 3.2,21.404 3.2,21.407C3.2,21.411 3.2,21.414 3.2,21.417C3.2,21.421 3.2,21.424 3.2,21.428C3.2,21.431 3.2,21.434 3.2,21.438C3.2,21.441 3.2,21.444 3.2,21.448C3.2,21.451 3.2,21.454 3.2,21.457C3.2,21.461 3.2,21.464 3.2,21.467C3.2,21.471 3.2,21.474 3.2,21.477C3.2,21.48 3.2,21.483 3.2,21.487C3.2,21.49 3.2,21.493 3.2,21.496C3.2,21.499 3.2,21.502 3.2,21.505C3.2,21.509 3.2,21.512 3.2,21.515C3.2,21.518 3.2,21.521 3.2,21.524C3.2,21.527 3.2,21.53 3.2,21.533C3.2,21.536 3.2,21.539 3.2,21.542C3.2,21.545 3.2,21.548 3.2,21.551C3.2,21.554 3.2,21.557 3.2,21.56C3.2,21.563 3.2,21.566 3.2,21.569C3.2,21.571 3.2,21.574 3.2,21.577C3.2,21.58 3.2,21.583 3.2,21.586C3.2,21.589 3.2,21.591 3.2,21.594C3.2,21.597 3.2,21.6 3.2,21.603C3.2,21.605 3.2,21.608 3.2,21.611C3.2,21.614 3.2,21.616 3.2,21.619C3.2,21.622 3.2,21.624 3.2,21.627C3.2,21.63 3.2,21.633 3.2,21.635C3.2,21.638 3.2,21.64 3.2,21.643C3.2,21.646 3.2,21.648 3.2,21.651C3.2,21.653 3.2,21.656 3.2,21.659C3.2,21.661 3.2,21.664 3.2,21.666C3.2,21.669 3.2,21.671 3.2,21.674C3.2,21.676 3.2,21.679 3.2,21.681C3.2,21.684 3.2,21.686 3.2,21.689C3.2,21.691 3.2,21.693 3.2,21.696C3.2,21.698 3.2,21.701 3.2,21.703C3.2,21.705 3.2,21.708 3.2,21.71C3.2,21.713 3.2,21.715 3.2,21.717C3.2,21.72 3.2,21.722 3.2,21.724C3.2,21.726 3.2,21.729 3.2,21.731C3.2,21.733 3.2,21.735 3.2,21.738C3.2,21.74 3.2,21.742 3.2,21.744C3.2,21.747 3.2,21.749 3.2,21.751C3.2,21.753 3.2,21.755 3.2,21.757C3.2,21.76 3.2,21.762 3.2,21.764C3.2,21.766 3.2,21.768 3.2,21.77C3.2,21.772 3.2,21.774 3.2,21.776C3.2,21.778 3.2,21.78 3.2,21.782C3.2,21.784 3.2,21.786 3.2,21.788C3.2,21.79 3.2,21.792 3.2,21.794C3.2,21.796 3.2,21.798 3.2,21.8C3.2,21.802 3.2,21.804 3.2,21.806C3.2,21.808 3.2,21.81 3.2,21.812C3.2,21.814 3.2,21.816 3.2,21.817C3.2,21.819 3.2,21.821 3.2,21.823C3.2,21.825 3.2,21.827 3.2,21.828C3.2,21.83 3.2,21.832 3.2,21.834C3.2,21.835 3.2,21.837 3.2,21.839C3.2,21.841 3.2,21.842 3.2,21.844C3.2,21.846 3.2,21.848 3.2,21.849C3.2,21.851 3.2,21.853 3.2,21.854C3.2,21.856 3.2,21.858 3.2,21.859C3.2,21.861 3.2,21.862 3.2,21.864C3.2,21.866 3.2,21.867 3.2,21.869C3.2,21.87 3.2,21.872 3.2,21.873C3.2,21.875 3.2,21.877 3.2,21.878C3.2,21.88 3.2,21.881 3.2,21.883C3.2,21.884 3.2,21.886 3.2,21.887C3.2,21.888 3.2,21.89 3.2,21.891C3.2,21.893 3.2,21.894 3.2,21.896C3.2,21.897 3.2,21.898 3.2,21.9C3.2,21.901 3.2,21.903 3.2,21.904C3.2,21.905 3.2,21.907 3.2,21.908C3.2,21.909 3.2,21.911 3.2,21.912C3.2,21.913 3.2,21.914 3.2,21.916C3.2,21.917 3.2,21.918 3.2,21.919C3.2,21.921 3.2,21.922 3.2,21.923C3.2,21.924 3.2,21.926 3.2,21.927C3.2,21.928 3.2,21.929 3.2,21.93C3.2,21.931 3.2,21.933 3.2,21.934C3.2,21.935 3.2,21.936 3.2,21.937C3.2,21.938 3.2,21.939 3.2,21.94C3.2,21.941 3.2,21.943 3.2,21.944C3.2,21.945 3.2,21.946 3.2,21.947C3.2,21.948 3.2,21.949 3.2,21.95C3.2,21.951 3.2,21.952 3.2,21.953C3.2,21.954 3.2,21.955 3.2,21.956C3.2,21.957 3.2,21.957 3.2,21.958L4.8,21.958C4.8,21.957 4.8,21.957 4.8,21.956C4.8,21.955 4.8,21.954 4.8,21.953C4.8,21.952 4.8,21.951 4.8,21.95C4.8,21.949 4.8,21.948 4.8,21.947C4.8,21.946 4.8,21.945 4.8,21.944C4.8,21.943 4.8,21.941 4.8,21.94C4.8,21.939 4.8,21.938 4.8,21.937C4.8,21.936 4.8,21.935 4.8,21.934C4.8,21.933 4.8,21.931 4.8,21.93C4.8,21.929 4.8,21.928 4.8,21.927C4.8,21.926 4.8,21.924 4.8,21.923C4.8,21.922 4.8,21.921 4.8,21.919C4.8,21.918 4.8,21.917 4.8,21.916C4.8,21.914 4.8,21.913 4.8,21.912C4.8,21.911 4.8,21.909 4.8,21.908C4.8,21.907 4.8,21.905 4.8,21.904C4.8,21.903 4.8,21.901 4.8,21.9C4.8,21.898 4.8,21.897 4.8,21.896C4.8,21.894 4.8,21.893 4.8,21.891C4.8,21.89 4.8,21.888 4.8,21.887C4.8,21.886 4.8,21.884 4.8,21.883C4.8,21.881 4.8,21.88 4.8,21.878C4.8,21.877 4.8,21.875 4.8,21.873C4.8,21.872 4.8,21.87 4.8,21.869C4.8,21.867 4.8,21.866 4.8,21.864C4.8,21.862 4.8,21.861 4.8,21.859C4.8,21.858 4.8,21.856 4.8,21.854C4.8,21.853 4.8,21.851 4.8,21.849C4.8,21.848 4.8,21.846 4.8,21.844C4.8,21.842 4.8,21.841 4.8,21.839C4.8,21.837 4.8,21.835 4.8,21.834C4.8,21.832 4.8,21.83 4.8,21.828C4.8,21.827 4.8,21.825 4.8,21.823C4.8,21.821 4.8,21.819 4.8,21.817C4.8,21.816 4.8,21.814 4.8,21.812C4.8,21.81 4.8,21.808 4.8,21.806C4.8,21.804 4.8,21.802 4.8,21.8C4.8,21.798 4.8,21.796 4.8,21.794C4.8,21.792 4.8,21.79 4.8,21.788C4.8,21.786 4.8,21.784 4.8,21.782C4.8,21.78 4.8,21.778 4.8,21.776C4.8,21.774 4.8,21.772 4.8,21.77C4.8,21.768 4.8,21.766 4.8,21.764C4.8,21.762 4.8,21.76 4.8,21.757C4.8,21.755 4.8,21.753 4.8,21.751C4.8,21.749 4.8,21.747 4.8,21.744C4.8,21.742 4.8,21.74 4.8,21.738C4.8,21.735 4.8,21.733 4.8,21.731C4.8,21.729 4.8,21.726 4.8,21.724C4.8,21.722 4.8,21.72 4.8,21.717C4.8,21.715 4.8,21.713 4.8,21.71C4.8,21.708 4.8,21.705 4.8,21.703C4.8,21.701 4.8,21.698 4.8,21.696C4.8,21.693 4.8,21.691 4.8,21.689C4.8,21.686 4.8,21.684 4.8,21.681C4.8,21.679 4.8,21.676 4.8,21.674C4.8,21.671 4.8,21.669 4.8,21.666C4.8,21.664 4.8,21.661 4.8,21.659C4.8,21.656 4.8,21.653 4.8,21.651C4.8,21.648 4.8,21.646 4.8,21.643C4.8,21.64 4.8,21.638 4.8,21.635C4.8,21.633 4.8,21.63 4.8,21.627C4.8,21.624 4.8,21.622 4.8,21.619C4.8,21.616 4.8,21.614 4.8,21.611C4.8,21.608 4.8,21.605 4.8,21.603C4.8,21.6 4.8,21.597 4.8,21.594C4.8,21.591 4.8,21.589 4.8,21.586C4.8,21.583 4.8,21.58 4.8,21.577C4.8,21.574 4.8,21.571 4.8,21.569C4.8,21.566 4.8,21.563 4.8,21.56C4.8,21.557 4.8,21.554 4.8,21.551C4.8,21.548 4.8,21.545 4.8,21.542C4.8,21.539 4.8,21.536 4.8,21.533C4.8,21.53 4.8,21.527 4.8,21.524C4.8,21.521 4.8,21.518 4.8,21.515C4.8,21.512 4.8,21.509 4.8,21.505C4.8,21.502 4.8,21.499 4.8,21.496C4.8,21.493 4.8,21.49 4.8,21.487C4.8,21.483 4.8,21.48 4.8,21.477C4.8,21.474 4.8,21.471 4.8,21.467C4.8,21.464 4.8,21.461 4.8,21.457C4.8,21.454 4.8,21.451 4.8,21.448C4.8,21.444 4.8,21.441 4.8,21.438C4.8,21.434 4.8,21.431 4.8,21.428C4.8,21.424 4.8,21.421 4.8,21.417C4.8,21.414 4.8,21.411 4.8,21.407C4.8,21.404 4.8,21.4 4.8,21.397C4.8,21.393 4.8,21.39 4.8,21.386C4.8,21.383 4.8,21.379 4.8,21.376C4.8,21.372 4.8,21.369 4.8,21.365C4.8,21.362 4.8,21.358 4.8,21.354C4.8,21.351 4.8,21.347 4.8,21.344C4.8,21.34 4.8,21.336 4.8,21.333C4.8,21.329 4.8,21.325 4.8,21.322C4.8,21.318 4.8,21.314 4.8,21.311C4.8,21.307 4.8,21.303 4.8,21.299C4.8,21.296 4.8,21.292 4.8,21.288C4.8,21.284 4.8,21.28 4.8,21.277C4.8,21.273 4.8,21.269 4.8,21.265C4.8,21.261 4.8,21.257 4.8,21.253C4.8,21.25 4.8,21.246 4.8,21.242C4.8,21.238 4.8,21.234 4.8,21.23C4.8,21.226 4.8,21.222 4.8,21.218C4.8,21.214 4.8,21.21 4.8,21.206C4.8,21.202 4.8,21.198 4.8,21.194C4.8,21.19 4.8,21.186 4.8,21.182C4.8,21.178 4.8,21.173 4.8,21.169C4.8,21.165 4.8,21.161 4.8,21.157C4.8,21.153 4.8,21.149 4.8,21.144C4.8,21.14 4.8,21.136 4.8,21.132C4.8,21.128 4.8,21.123 4.8,21.119C4.8,21.115 4.8,21.11 4.8,21.106C4.8,21.102 4.8,21.098 4.8,21.093C4.8,21.089 4.8,21.085 4.8,21.08C4.8,21.076 4.8,21.071 4.8,21.067C4.8,21.063 4.8,21.058 4.8,21.054C4.8,21.049 4.8,21.045 4.8,21.041C4.8,21.036 4.8,21.032 4.8,21.027C4.8,21.023 4.8,21.018 4.8,21.014C4.8,21.009 4.8,21.004 4.8,21C4.8,20.995 4.8,20.991 4.8,20.986C4.8,20.982 4.8,20.977 4.8,20.972C4.8,20.968 4.8,20.963 4.8,20.958C4.8,20.954 4.8,20.949 4.8,20.944C4.8,20.94 4.8,20.935 4.8,20.93C4.8,20.925 4.8,20.921 4.8,20.916C4.8,20.911 4.8,20.906 4.8,20.902C4.8,20.897 4.8,20.892 4.8,20.887C4.8,20.882 4.8,20.877 4.8,20.872C4.8,20.868 4.8,20.863 4.8,20.858C4.8,20.853 4.8,20.848 4.8,20.843C4.8,20.838 4.8,20.833 4.8,20.828C4.8,20.823 4.8,20.818 4.8,20.813C4.8,20.808 4.8,20.803 4.8,20.798C4.8,20.793 4.8,20.788 4.8,20.783C4.8,20.778 4.8,20.773 4.8,20.767C4.8,20.762 4.8,20.757 4.8,20.752C4.8,20.747 4.8,20.742 4.8,20.737C4.8,20.731 4.8,20.726 4.8,20.721C4.8,20.716 4.8,20.71 4.8,20.705C4.8,20.7 4.8,20.695 4.8,20.689C4.8,20.684 4.8,20.679 4.8,20.673C4.8,20.668 4.8,20.663 4.8,20.657C4.8,20.652 4.8,20.646 4.8,20.641C4.8,20.636 4.8,20.63 4.8,20.625C4.8,20.619 4.8,20.614 4.8,20.608C4.8,20.603 4.8,20.597 4.8,20.592C4.8,20.586 4.8,20.581 4.8,20.575C4.8,20.57 4.8,20.564 4.8,20.559C4.8,20.553 4.8,20.547 4.8,20.542C4.8,20.536 4.8,20.53 4.8,20.525C4.8,20.519 4.8,20.513 4.8,20.508C4.8,20.502 4.8,20.496 4.8,20.491C4.8,20.485 4.8,20.479 4.8,20.473C4.8,20.468 4.8,20.462 4.8,20.456C4.8,20.45 4.8,20.444 4.8,20.438C4.8,20.433 4.8,20.427 4.8,20.421C4.8,20.415 4.8,20.409 4.8,20.403C4.8,20.397 4.8,20.391 4.8,20.385C4.8,20.379 4.8,20.373 4.8,20.367C4.8,20.361 4.8,20.355 4.8,20.349C4.8,20.343 4.8,20.337 4.8,20.331C4.8,20.325 4.8,20.319 4.8,20.313C4.8,20.307 4.8,20.301 4.8,20.295C4.8,20.288 4.8,20.282 4.8,20.276C4.8,20.27 4.8,20.264 4.8,20.257C4.8,20.251 4.8,20.245 4.8,20.239C4.8,20.232 4.8,20.226 4.8,20.22C4.8,20.214 4.8,20.207 4.8,20.201C4.8,20.195 4.8,20.188 4.8,20.182C4.8,20.176 4.8,20.169 4.8,20.163C4.8,20.156 4.8,20.15 4.8,20.143C4.8,20.137 4.8,20.131 4.8,20.124C4.8,20.118 4.8,20.111 4.8,20.105C4.8,20.098 4.8,20.092 4.8,20.085C4.8,20.078 4.8,20.072 4.8,20.065C4.8,20.059 4.8,20.052 4.8,20.045C4.8,20.039 4.8,20.032 4.8,20.025C4.8,20.019 4.8,20.012 4.8,20.005C4.8,19.999 4.8,19.992 4.8,19.985C4.8,19.978 4.8,19.972 4.8,19.965C4.8,19.958 4.8,19.951 4.8,19.944C4.8,19.938 4.8,19.931 4.8,19.924C4.8,19.917 4.8,19.91 4.8,19.903C4.8,19.896 4.8,19.889 4.8,19.882C4.8,19.875 4.8,19.869 4.8,19.862C4.8,19.855 4.8,19.848 4.8,19.841C4.8,19.834 4.8,19.826 4.8,19.819C4.8,19.812 4.8,19.805 4.8,19.798C4.8,19.791 4.8,19.784 4.8,19.777C4.8,19.77 4.8,19.763 4.8,19.755C4.8,19.748 4.8,19.741 4.8,19.734C4.8,19.727 4.8,19.719 4.8,19.712C4.8,19.705 4.8,19.698 4.8,19.69C4.8,19.683 4.8,19.676 4.8,19.668C4.8,19.661 4.8,19.654 4.8,19.646C4.8,19.639 4.8,19.631 4.8,19.624C4.8,19.617 4.8,19.609 4.8,19.602C4.8,19.594 4.8,19.587 4.8,19.579C4.8,19.572 4.8,19.564 4.8,19.557C4.8,19.549 4.8,19.542 4.8,19.534C4.8,19.527 4.8,19.519 4.8,19.511C4.8,19.504 4.8,19.496 4.8,19.488C4.8,19.481 4.8,19.473 4.8,19.465C4.8,19.458 4.8,19.45 4.8,19.442C4.8,19.435 4.8,19.427 4.8,19.419C4.8,19.411 4.8,19.403 4.8,19.396C4.8,19.388 4.8,19.38 4.8,19.372C4.8,19.364 4.8,19.356 4.8,19.348C4.8,19.341 4.8,19.333 4.8,19.325C4.8,19.317 4.8,19.309 4.8,19.301C4.8,19.293 4.8,19.285 4.8,19.277C4.8,19.269 4.8,19.261 4.8,19.253C4.8,19.245 4.8,19.237 4.8,19.229C4.8,19.22 4.8,19.212 4.8,19.204C4.8,19.196 4.8,19.188 4.8,19.18C4.8,19.172 4.8,19.163 4.8,19.155C4.8,19.147 4.8,19.139 4.8,19.13C4.8,19.122 4.8,19.114 4.8,19.106C4.8,19.097 4.8,19.089 4.8,19.081C4.8,19.072 4.8,19.064 4.8,19.056C4.8,19.047 4.8,19.039 4.8,19.03C4.8,19.022 4.8,19.013 4.8,19.005C4.8,18.996 4.8,18.988 4.8,18.979C4.8,18.971 4.8,18.962 4.8,18.954C4.8,18.945 4.8,18.937 4.8,18.928C4.8,18.92 4.8,18.911 4.8,18.902C4.8,18.894 4.8,18.885 4.8,18.876C4.8,18.868 4.8,18.859 4.8,18.85C4.8,18.842 4.8,18.833 4.8,18.824C4.8,18.815 4.8,18.807 4.8,18.798C4.8,18.789 4.8,18.78 4.8,18.771C4.8,18.762 4.8,18.754 4.8,18.745C4.8,18.736 4.8,18.727 4.8,18.718C4.8,18.709 4.8,18.7 4.8,18.691C4.8,18.682 4.8,18.673 4.8,18.664C4.8,18.655 4.8,18.646 4.8,18.637C4.8,18.628 4.8,18.619 4.8,18.61C4.8,18.601 4.8,18.592 4.8,18.583C4.8,18.573 4.8,18.564 4.8,18.555C4.8,18.546 4.8,18.537 4.8,18.527C4.8,18.518 4.8,18.509 4.8,18.5C4.8,18.49 4.8,18.481 4.8,18.472C4.8,18.463 4.8,18.453 4.8,18.444C4.8,18.435 4.8,18.425 4.8,18.416C4.8,18.406 4.8,18.397 4.8,18.388C4.8,18.378 4.8,18.369 4.8,18.359C4.8,18.35 4.8,18.34 4.8,18.331C4.8,18.321 4.8,18.312 4.8,18.302C4.8,18.292 4.8,18.283 4.8,18.273C4.8,18.264 4.8,18.254 4.8,18.244C4.8,18.235 4.8,18.225 4.8,18.215C4.8,18.206 4.8,18.196 4.8,18.186C4.8,18.176 4.8,18.167 4.8,18.157C4.8,18.147 4.8,18.137 4.8,18.127C4.8,18.118 4.8,18.108 4.8,18.098C4.8,18.088 4.8,18.078 4.8,18.068C4.8,18.058 4.8,18.048 4.8,18.038C4.8,18.029 4.8,18.019 4.8,18.009C4.8,17.999 4.8,17.989 4.8,17.978C4.8,17.968 4.8,17.958 4.8,17.948C4.8,17.938 4.8,17.928 4.8,17.918C4.8,17.908 4.8,17.898 4.8,17.887C4.8,17.877 4.8,17.867 4.8,17.857C4.8,17.847 4.8,17.836 4.8,17.826C4.8,17.816 4.8,17.806 4.8,17.795C4.8,17.785 4.8,17.775 4.8,17.764C4.8,17.754 4.8,17.744 4.8,17.733C4.8,17.723 4.8,17.712 4.8,17.702C4.8,17.692 4.8,17.681 4.8,17.671C4.8,17.66 4.8,17.65 4.8,17.639C4.8,17.629 4.8,17.618 4.8,17.607C4.8,17.597 4.8,17.586 4.8,17.576C4.8,17.565 4.8,17.554 4.8,17.544C4.8,17.533 4.8,17.522 4.8,17.512C4.8,17.501 4.8,17.49 4.8,17.479C4.8,17.469 4.8,17.458 4.8,17.447C4.8,17.436 4.8,17.425 4.8,17.415C4.8,17.404 4.8,17.393 4.8,17.382C4.8,17.371 4.8,17.36 4.8,17.349C4.8,17.338 4.8,17.327 4.8,17.316C4.8,17.305 4.8,17.294 4.8,17.283C4.8,17.272 4.8,17.261 4.8,17.25C4.8,17.239 4.8,17.228 4.8,17.217C4.8,17.206 4.8,17.195 4.8,17.184C4.8,17.172 4.8,17.161 4.8,17.15C4.8,17.139 4.8,17.128 4.8,17.116C4.8,17.105 4.8,17.094 4.8,17.082C4.8,17.071 4.8,17.06 4.8,17.049C4.8,17.037 4.8,17.026 4.8,17.014C4.8,17.003 4.8,16.992 4.8,16.98C4.8,16.969 4.8,16.957 4.8,16.946C4.8,16.934 4.8,16.923 4.8,16.911C4.8,16.9 4.8,16.888 4.8,16.877C4.8,16.865 4.8,16.853 4.8,16.842C4.8,16.83 4.8,16.819 4.8,16.807C4.8,16.795 4.8,16.784 4.8,16.772C4.8,16.76 4.8,16.748 4.8,16.737C4.8,16.725 4.8,16.713 4.8,16.701C4.8,16.689 4.8,16.678 4.8,16.666C4.8,16.654 4.8,16.642 4.8,16.63C4.8,16.618 4.8,16.606 4.8,16.594C4.8,16.582 4.8,16.571 4.8,16.559C4.8,16.547 4.8,16.535 4.8,16.522C4.8,16.51 4.8,16.498 4.8,16.486C4.8,16.474 4.8,16.462 4.8,16.45C4.8,16.438 4.8,16.426 4.8,16.413C4.8,16.401 4.8,16.389 4.8,16.377C4.8,16.365 4.8,16.352 4.8,16.34C4.8,16.328 4.8,16.316 4.8,16.303C4.8,16.291 4.8,16.279 4.8,16.266C4.8,16.254 4.8,16.241 4.8,16.229C4.8,16.217 4.8,16.204 4.8,16.192C4.8,16.179 4.8,16.167 4.8,16.154C4.8,16.142 4.8,16.129 4.8,16.117C4.8,16.104 4.8,16.091 4.8,16.079C4.8,16.066 4.8,16.054 4.8,16.041C4.8,16.028 4.8,16.016 4.8,16.003C4.8,15.99 4.8,15.978 4.8,15.965C4.8,15.952 4.8,15.939 4.8,15.926C4.8,15.914 4.8,15.901 4.8,15.888C4.8,15.875 4.8,15.862 4.8,15.849C4.8,15.837 4.8,15.824 4.8,15.811C4.8,15.798 4.8,15.785 4.8,15.772C4.8,15.759 4.8,15.746 4.8,15.733C4.8,15.72 4.8,15.707 4.8,15.694C4.8,15.68 4.8,15.667 4.8,15.654C4.8,15.641 4.8,15.628 4.8,15.615C4.8,15.602 4.8,15.588 4.8,15.575C4.8,15.562 4.8,15.549 4.8,15.535C4.8,15.522 4.8,15.509 4.8,15.495C4.8,15.482 4.8,15.469 4.8,15.455C4.8,15.442 4.8,15.429 4.8,15.415C4.8,15.402 4.8,15.388 4.8,15.375C4.8,15.361 4.8,15.348 4.8,15.334C4.8,15.321 4.8,15.307 4.8,15.294C4.8,15.28 4.8,15.267 4.8,15.253C4.8,15.239 4.8,15.226 4.8,15.212C4.8,15.198 4.8,15.185 4.8,15.171C4.8,15.157 4.8,15.143 4.8,15.13C4.8,15.116 4.8,15.102 4.8,15.088C4.8,15.074 4.8,15.061 4.8,15.047C4.8,15.033 4.8,15.019 4.8,15.005C4.8,14.991 4.8,14.977 4.8,14.963C4.8,14.949 4.8,14.935 4.8,14.921C4.8,14.907 4.8,14.893 4.8,14.879C4.8,14.865 4.8,14.851 4.8,14.837C4.8,14.823 4.8,14.809 4.8,14.794C4.8,14.78 4.8,14.766 4.8,14.752C4.8,14.738 4.8,14.723 4.8,14.709C4.8,14.695 4.8,14.681 4.8,14.666C4.8,14.652 4.8,14.638 4.8,14.623C4.8,14.609 4.8,14.594 4.8,14.58C4.8,14.566 4.8,14.551 4.8,14.537C4.8,14.522 4.8,14.508 4.8,14.493C4.8,14.479 4.8,14.464 4.8,14.45C4.8,14.435 4.8,14.421 4.8,14.406C4.8,14.391 4.8,14.377 4.8,14.362C4.8,14.347 4.8,14.333 4.8,14.318C4.8,14.303 4.8,14.288 4.8,14.274C4.8,14.259 4.8,14.244 4.8,14.229C4.8,14.214 4.8,14.2 4.8,14.185C4.8,14.17 4.8,14.155 4.8,14.14C4.8,14.125 4.8,14.11 4.8,14.095C4.8,14.08 4.8,14.065 4.8,14.05C4.8,14.035 4.8,14.02 4.8,14.005C4.8,13.99 4.8,13.975 4.8,13.96C4.8,13.945 4.8,13.93 4.8,13.914C4.8,13.899 4.8,13.884 4.8,13.869C4.8,13.854 4.8,13.838 4.8,13.823C4.8,13.808 4.8,13.792 4.8,13.777C4.8,13.762 4.8,13.746 4.8,13.731C4.8,13.716 4.8,13.7 4.8,13.685C4.8,13.669 4.8,13.654 4.8,13.638C4.8,13.623 4.8,13.607 4.8,13.592C4.8,13.576 4.8,13.561 4.8,13.545C4.8,13.53 4.8,13.514 4.8,13.498C4.8,13.483 4.8,13.467 4.8,13.451C4.8,13.436 4.8,13.42 4.8,13.404C4.8,13.389 4.8,13.373 4.8,13.357C4.8,13.341 4.8,13.325 4.8,13.309C4.8,13.294 4.8,13.278 4.8,13.262C4.8,13.246 4.8,13.23 4.8,13.214C4.8,13.198 4.8,13.182 4.8,13.166C4.8,13.15 4.8,13.134 4.8,13.118C4.8,13.102 4.8,13.086 4.8,13.07C4.8,13.054 4.8,13.038 4.8,13.021C4.8,13.005 4.8,12.989 4.8,12.973C4.8,12.957 4.8,12.94 4.8,12.924C4.8,12.908 4.8,12.892 4.8,12.875C4.8,12.859 4.8,12.843 4.8,12.826C4.8,12.81 4.8,12.794 4.8,12.777C4.8,12.761 4.8,12.744 4.8,12.728C4.8,12.711 4.8,12.695 4.8,12.678C4.8,12.662 4.8,12.645 4.8,12.629C4.8,12.612 4.8,12.595 4.8,12.579C4.8,12.562 4.8,12.545 4.8,12.529C4.8,12.512 4.8,12.495 4.8,12.479C4.8,12.462 4.8,12.445 4.8,12.428C4.8,12.412 4.8,12.395 4.8,12.378C4.8,12.361 4.8,12.344 4.8,12.327C4.8,12.31 4.8,12.293 4.8,12.276C4.8,12.26 4.8,12.243 4.8,12.226C4.8,12.209 4.8,12.192 4.8,12.174C4.8,12.157 4.8,12.14 4.8,12.123C4.8,12.106 4.8,12.089 4.8,12.072C4.8,12.055 4.8,12.037 4.8,12.02C4.8,12.003 4.8,11.986 4.8,11.968C4.8,11.951 4.8,11.934 4.8,11.917C4.8,11.899 4.8,11.882 4.8,11.864C4.8,11.847 4.8,11.83 4.8,11.812C4.8,11.795 4.8,11.777 4.8,11.76C4.8,11.742 4.8,11.725 4.8,11.707C4.8,11.69 4.8,11.672 4.8,11.655C4.8,11.637 4.8,11.619 4.8,11.602C4.8,11.584 4.8,11.566 4.8,11.549C4.8,11.531 4.8,11.513 4.8,11.495C4.8,11.478 4.8,11.46 4.8,11.442C4.8,11.424 4.8,11.406 4.8,11.389C4.8,11.371 4.8,11.353 4.8,11.335C4.8,11.317 4.8,11.299 4.8,11.281C4.8,11.263 4.8,11.245 4.8,11.227C4.8,11.209 4.8,11.191 4.8,11.173C4.8,11.155 4.8,11.137 4.8,11.118C4.8,11.1 4.8,11.082 4.8,11.064C4.8,11.046 4.8,11.027 4.8,11.009C4.8,10.991 4.8,10.973 4.8,10.954C4.8,10.936 4.8,10.918 4.8,10.899C4.8,10.881 4.8,10.863 4.8,10.844C4.8,10.826 4.8,10.807 4.8,10.789C4.8,10.77 4.8,10.752 4.8,10.733C4.8,10.715 4.8,10.696 4.8,10.678C4.8,10.659 4.8,10.64 4.8,10.622C4.8,10.603 4.8,10.584 4.8,10.566C4.8,10.547 4.8,10.528 4.8,10.51C4.8,10.491 4.8,10.472 4.8,10.453C4.8,10.434 4.8,10.416 4.8,10.397C4.8,10.378 4.8,10.359 4.8,10.34C4.8,10.321 4.8,10.302 4.8,10.283C4.8,10.264 4.8,10.245 4.8,10.226C4.8,10.207 4.8,10.188 4.8,10.169C4.8,10.15 4.8,10.131 4.8,10.112C4.8,10.092 4.8,10.073 4.8,10.054C4.8,10.035 4.8,10.016 4.8,9.996C4.8,9.977 4.8,9.958 4.8,9.939C4.8,9.919 4.8,9.9 4.8,9.881C4.8,9.861 4.8,9.842 4.8,9.822C4.8,9.803 4.8,9.783 4.8,9.764C4.8,9.744 4.8,9.725 4.8,9.705C4.8,9.686 4.8,9.666 4.8,9.647C4.8,9.627 4.8,9.608 4.8,9.588C4.8,9.568 4.8,9.549 4.8,9.529C4.8,9.509 4.8,9.489 4.8,9.47C4.8,9.45 4.8,9.43 4.8,9.41C4.8,9.39 4.8,9.371 4.8,9.351C4.8,9.331 4.8,9.311 4.8,9.291C4.8,9.271 4.8,9.251 4.8,9.231C4.8,9.211 4.8,9.191 4.8,9.171C4.8,9.151 4.8,9.131 4.8,9.111C4.8,9.091 4.8,9.07 4.8,9.05C4.8,9.03 4.8,9.01 4.8,8.99C4.8,8.969 4.8,8.949 4.8,8.929C4.8,8.909 4.8,8.888 4.8,8.868C4.8,8.848 4.8,8.827 4.8,8.807C4.8,8.786 4.8,8.766 4.8,8.746C4.8,8.725 4.8,8.705 4.8,8.684C4.8,8.664 4.8,8.643 4.8,8.623C4.8,8.602 4.8,8.581 4.8,8.561C4.8,8.54 4.8,8.519 4.8,8.499C4.8,8.478 4.8,8.457 4.8,8.437C4.8,8.416 4.8,8.395 4.8,8.374C4.8,8.353 4.8,8.333 4.8,8.312C4.8,8.291 4.8,8.27 4.8,8.249C4.8,8.228 4.8,8.207 4.8,8.186C4.8,8.165 4.8,8.144 4.8,8.123C4.8,8.102 4.8,8.081 4.8,8.06C4.8,8.039 4.8,8.018 4.8,7.997C4.8,7.976 4.8,7.954 4.8,7.933C4.8,7.912 4.8,7.891 4.8,7.869C4.8,7.848 4.8,7.827 4.8,7.806C4.8,7.784 4.8,7.763 4.8,7.741C4.8,7.72 4.8,7.699 4.8,7.677C4.8,7.656 4.8,7.634 4.8,7.613C4.8,7.591 4.8,7.57 4.8,7.548C4.8,7.527 4.8,7.505 4.8,7.483C4.8,7.462 4.8,7.44 4.8,7.418C4.8,7.397 4.8,7.375 4.8,7.353C4.8,7.332 4.8,7.31 4.8,7.288C4.8,7.266 4.8,7.244 4.8,7.223C4.8,7.201 4.8,7.179 4.8,7.157C4.8,7.135 4.8,7.113 4.8,7.091C4.8,7.069 4.8,7.047 4.8,7.025C4.8,7.003 4.8,6.981 4.8,6.959C4.8,6.937 4.8,6.915 4.8,6.892C4.8,6.87 4.8,6.848 4.8,6.826C4.8,6.804 4.8,6.781 4.8,6.759C4.8,6.737 4.8,6.715 4.8,6.692C4.8,6.67 4.8,6.647 4.8,6.625C4.8,6.603 4.8,6.58 4.8,6.558C4.8,6.535 4.8,6.513 4.8,6.49C4.8,6.468 4.8,6.445 4.8,6.423C4.8,6.4 4.8,6.378 4.8,6.355C4.8,6.332 4.8,6.31 4.8,6.287C4.8,6.264 4.8,6.241 4.8,6.219C4.8,6.196 4.8,6.173 4.8,6.15C4.8,6.128 4.8,6.105 4.8,6.082C4.8,6.059 4.8,6.036 4.8,6.013C4.8,5.99 4.8,5.967 4.8,5.944C4.8,5.921 4.8,5.898 4.8,5.875C4.8,5.852 4.8,5.829 4.8,5.806C4.8,5.783 4.8,5.76 4.8,5.736C4.8,5.713 4.8,5.69 4.8,5.667L3.2,5.667ZM3.322,22.384L4.656,24.509L6.011,23.658L4.678,21.533L3.322,22.384ZM4.751,24.632L6.084,26.048L7.249,24.952L5.916,23.535L4.751,24.632ZM6.183,26.137L15.516,33.221L16.484,31.946L7.15,24.863L6.183,26.137ZM16.451,33.244L25.785,26.869L24.882,25.548L15.549,31.923L16.451,33.244ZM25.333,27.008C25.72,27.008 26.103,26.801 26.415,26.523C26.752,26.223 27.089,25.774 27.391,25.132L25.943,24.451C25.711,24.943 25.493,25.202 25.352,25.327C25.186,25.474 25.169,25.408 25.333,25.408L25.333,27.008ZM27.391,25.132C27.394,25.124 27.437,25.034 27.441,25.026C27.459,24.986 27.435,25.039 27.453,24.999C27.484,24.935 27.435,25.037 27.466,24.972C27.467,24.97 27.49,24.921 27.491,24.919C27.52,24.858 27.513,24.873 27.541,24.812C27.549,24.795 27.559,24.775 27.567,24.758C27.578,24.734 27.58,24.729 27.592,24.705C27.605,24.676 27.629,24.626 27.642,24.597C27.649,24.583 27.648,24.586 27.655,24.571C27.656,24.568 27.657,24.566 27.658,24.564C27.659,24.562 27.66,24.56 27.661,24.557C27.662,24.555 27.663,24.553 27.664,24.551C27.665,24.548 27.666,24.546 27.667,24.544C27.668,24.542 27.67,24.539 27.671,24.537C27.672,24.535 27.673,24.533 27.674,24.531C27.675,24.528 27.676,24.526 27.677,24.524C27.678,24.522 27.679,24.519 27.68,24.517C27.686,24.505 27.681,24.516 27.686,24.504C27.687,24.502 27.688,24.499 27.689,24.497C27.69,24.495 27.692,24.493 27.693,24.491C27.719,24.435 27.767,24.332 27.793,24.278C27.797,24.269 27.813,24.234 27.817,24.225C27.847,24.163 27.8,24.261 27.83,24.199C27.843,24.171 27.829,24.201 27.842,24.173C27.85,24.156 27.883,24.085 27.891,24.068C27.911,24.027 27.97,23.902 27.988,23.862C28.005,23.826 27.983,23.873 28,23.837C28.001,23.835 28.002,23.833 28.003,23.831C28.004,23.829 28.005,23.826 28.006,23.824C28.009,23.819 28.009,23.817 28.012,23.812C28.021,23.793 28.009,23.817 28.018,23.799C28.033,23.768 28.009,23.818 28.024,23.786C28.031,23.772 28.023,23.788 28.03,23.774C28.051,23.73 28.015,23.806 28.036,23.761C28.058,23.714 28.019,23.796 28.042,23.749C28.043,23.747 28.044,23.745 28.045,23.743C28.046,23.74 28.047,23.738 28.047,23.736C28.052,23.726 28.049,23.734 28.053,23.724C28.054,23.722 28.055,23.72 28.056,23.718C28.057,23.716 28.058,23.713 28.059,23.711C28.06,23.709 28.061,23.707 28.062,23.705C28.063,23.703 28.064,23.701 28.065,23.699C28.067,23.696 28.069,23.69 28.071,23.687C28.073,23.682 28.075,23.678 28.077,23.674C28.094,23.637 28.065,23.699 28.083,23.662C28.089,23.648 28.099,23.626 28.106,23.613C28.127,23.567 28.096,23.634 28.117,23.588C28.129,23.563 28.117,23.59 28.129,23.564C28.145,23.529 28.135,23.55 28.151,23.516C28.153,23.512 28.155,23.508 28.157,23.504C28.157,23.503 28.162,23.492 28.163,23.492C28.186,23.442 28.145,23.529 28.168,23.48C28.169,23.478 28.17,23.476 28.171,23.474C28.172,23.472 28.173,23.47 28.174,23.468C28.181,23.454 28.178,23.458 28.185,23.444C28.194,23.424 28.187,23.44 28.196,23.42C28.2,23.413 28.215,23.381 28.218,23.374C28.219,23.372 28.22,23.37 28.221,23.368C28.222,23.366 28.223,23.364 28.224,23.362C28.238,23.331 28.215,23.381 28.229,23.35C28.23,23.348 28.231,23.347 28.232,23.345C28.233,23.343 28.234,23.341 28.235,23.339C28.236,23.336 28.239,23.33 28.24,23.327C28.253,23.299 28.237,23.333 28.251,23.304C28.259,23.287 28.253,23.299 28.262,23.282C28.277,23.249 28.289,23.223 28.304,23.192C28.328,23.141 28.321,23.154 28.345,23.104C28.355,23.082 28.415,22.956 28.424,22.937C28.435,22.913 28.487,22.801 28.497,22.782C28.577,22.611 28.682,22.389 28.724,22.299L27.276,21.618C27.249,21.675 27.26,21.652 27.23,21.715C27.224,21.729 27.212,21.754 27.205,21.77C27.189,21.803 27.193,21.794 27.177,21.829C27.163,21.857 27.162,21.861 27.147,21.891C27.134,21.919 27.145,21.896 27.132,21.924C27.128,21.932 27.12,21.95 27.116,21.957C27.106,21.98 27.095,22.003 27.083,22.027C27.054,22.089 27.096,22.001 27.066,22.063C27.056,22.085 27.059,22.079 27.049,22.1C27.044,22.111 27.045,22.108 27.04,22.119C27.039,22.123 27.033,22.134 27.031,22.138C27.014,22.175 27.044,22.11 27.027,22.148C27.025,22.151 27.024,22.154 27.022,22.157C27.014,22.174 27.021,22.16 27.013,22.177C27.001,22.201 26.988,22.23 26.976,22.256C26.954,22.302 26.979,22.25 26.957,22.297C26.956,22.298 26.955,22.3 26.954,22.302C26.953,22.303 26.953,22.305 26.952,22.307C26.951,22.309 26.95,22.31 26.949,22.312C26.949,22.314 26.948,22.316 26.947,22.317C26.946,22.319 26.945,22.321 26.945,22.322C26.944,22.324 26.943,22.326 26.942,22.328C26.941,22.329 26.94,22.331 26.94,22.333C26.939,22.335 26.938,22.336 26.937,22.338C26.926,22.362 26.909,22.399 26.897,22.423C26.86,22.501 26.852,22.519 26.814,22.6C26.803,22.623 26.814,22.601 26.803,22.623C26.798,22.635 26.798,22.634 26.792,22.646C26.789,22.652 26.79,22.651 26.787,22.658C26.766,22.702 26.802,22.625 26.781,22.669C26.78,22.671 26.78,22.673 26.779,22.675C26.778,22.677 26.777,22.679 26.776,22.681C26.771,22.691 26.775,22.682 26.77,22.692C26.765,22.703 26.754,22.728 26.748,22.739C26.746,22.744 26.745,22.746 26.743,22.751C26.728,22.782 26.752,22.732 26.737,22.763C26.725,22.79 26.739,22.76 26.726,22.787C26.631,22.989 26.453,23.366 26.345,23.597C26.339,23.609 26.338,23.61 26.332,23.623C26.328,23.633 26.331,23.627 26.326,23.636C26.325,23.639 26.324,23.641 26.323,23.643C26.322,23.645 26.321,23.647 26.32,23.65C26.31,23.672 26.305,23.681 26.295,23.703C26.292,23.71 26.292,23.709 26.289,23.716C26.288,23.719 26.284,23.727 26.282,23.729C26.281,23.732 26.271,23.753 26.27,23.756C26.269,23.758 26.268,23.76 26.267,23.763C26.266,23.765 26.265,23.767 26.264,23.769C26.263,23.771 26.262,23.774 26.261,23.776C26.26,23.778 26.258,23.78 26.257,23.783C26.239,23.822 26.263,23.77 26.245,23.809C26.216,23.871 26.174,23.961 26.144,24.023C26.106,24.104 26.081,24.157 26.043,24.238C26.012,24.305 26.05,24.224 26.018,24.291C26.006,24.317 26.005,24.319 25.993,24.345C25.969,24.396 25.967,24.4 25.943,24.451L27.391,25.132ZM28.8,21.958L28.8,19.125L27.2,19.125L27.2,21.958L28.8,21.958ZM28.8,19.125L28.8,12.75L27.2,12.75L27.2,19.125L28.8,19.125ZM28.8,12.75L28.8,5.667L27.2,5.667L27.2,12.75L28.8,12.75ZM28.724,5.326L28.057,3.909L26.609,4.591L27.276,6.007L28.724,5.326ZM27.916,3.702L27.249,2.993L26.084,4.09L26.751,4.798L27.916,3.702ZM26.833,2.759L23.5,2.051L23.167,3.616L26.5,4.324L26.833,2.759ZM23.556,2.065L16.223,-0.06L15.777,1.477L23.111,3.602L23.556,2.065ZM15.816,-0.07L9.816,1.346L10.184,2.904L16.184,1.487L15.816,-0.07ZM9.768,1.36L5.101,2.776L5.566,4.307L10.232,2.891L9.768,1.36ZM4.751,2.993L4.084,3.702L5.249,4.798L5.916,4.09L4.751,2.993ZM4.084,3.702L3.417,4.41L4.583,5.507L5.249,4.798L4.084,3.702ZM3.2,4.958L3.2,5.667L4.8,5.667L4.8,4.958L3.2,4.958Z" fill="url(#ps_0_57_160)"/>
<defs>
<linearGradient id="pf_0_57_131" x1="16" y1="1.417" x2="16" y2="32.583" gradientUnits="userSpaceOnUse">
<stop offset="0.28" stop-color="#0094FF"/>
<stop offset="0.715" stop-color="#00C2FF"/>
</linearGradient>
<linearGradient id="pf_0_57_159" x1="16.667" y1="9.917" x2="16.667" y2="19.833" gradientUnits="userSpaceOnUse">
<stop stop-color="#FF9900"/>
<stop offset="1" stop-color="#FFD600"/>
</linearGradient>
<linearGradient id="ps_0_57_160" x1="16" y1="0.708" x2="16" y2="32.583" gradientUnits="userSpaceOnUse">
<stop offset="0.095" stop-color="#FF7A00"/>
<stop offset="0.9" stop-color="#FFA800"/>
</linearGradient>
</defs>
</svg>
