<svg width="28" height="28" viewBox="0 0 28 28" fill="none" xmlns="http://www.w3.org/2000/svg" xmlns:xlink="http://www.w3.org/1999/xlink">
<path d="M14,14C12.167,14 10.597,13.347 9.292,12.042C7.986,10.736 7.333,9.167 7.333,7.333C7.333,5.5 7.986,3.931 9.292,2.625C10.597,1.32 12.167,0.667 14,0.667C15.833,0.667 17.403,1.32 18.708,2.625C20.014,3.931 20.667,5.5 20.667,7.333C20.667,9.167 20.014,10.736 18.708,12.042C17.403,13.347 15.833,14 14,14ZM0.667,27.333L0.667,22.667C0.667,21.722 0.91,20.855 1.397,20.063C1.883,19.272 2.529,18.668 3.333,18.25C5.055,17.389 6.805,16.743 8.583,16.313C10.361,15.883 12.167,15.668 14,15.667C15.833,15.666 17.639,15.881 19.417,16.313C21.194,16.746 22.944,17.391 24.667,18.25C25.472,18.667 26.118,19.271 26.605,20.063C27.092,20.856 27.334,21.723 27.333,22.667L27.333,27.333L0.667,27.333ZM4,24L24,24L24,22.667C24,22.361 23.924,22.083 23.772,21.833C23.619,21.583 23.418,21.389 23.167,21.25C21.667,20.5 20.153,19.938 18.625,19.563C17.097,19.189 15.555,19.001 14,19C12.444,18.999 10.903,19.187 9.375,19.563C7.847,19.94 6.333,20.502 4.833,21.25C4.583,21.389 4.382,21.583 4.228,21.833C4.075,22.083 3.999,22.361 4,22.667L4,24ZM14,10.667C14.917,10.667 15.702,10.341 16.355,9.688C17.008,9.036 17.334,8.251 17.333,7.333C17.332,6.416 17.006,5.631 16.355,4.98C15.704,4.329 14.919,4.002 14,4C13.081,3.998 12.297,4.325 11.647,4.98C10.997,5.636 10.67,6.42 10.667,7.333C10.663,8.247 10.99,9.032 11.647,9.688C12.303,10.345 13.088,10.671 14,10.667Z" fill="#000000" fill-opacity="0.67"/>
</svg>
