<svg width="50" height="60" viewBox="0 0 50 60" fill="none" xmlns="http://www.w3.org/2000/svg" xmlns:xlink="http://www.w3.org/1999/xlink">
<path d="M41.667,42.128C39.556,42.128 37.667,43.033 36.222,44.451L16.417,31.93C16.556,31.236 16.667,30.542 16.667,29.818C16.667,29.094 16.556,28.4 16.417,27.706L36,15.305C37.5,16.814 39.472,17.749 41.667,17.749C46.278,17.749 50,13.706 50,8.698C50,3.689 46.278,-0.354 41.667,-0.354C37.056,-0.354 33.333,3.689 33.333,8.698C33.333,9.422 33.444,10.116 33.583,10.81L14,23.21C12.5,21.702 10.528,20.766 8.333,20.766C3.722,20.766 0,24.809 0,29.818C0,34.826 3.722,38.869 8.333,38.869C10.528,38.869 12.5,37.934 14,36.426L33.778,48.977C33.639,49.611 33.556,50.274 33.556,50.938C33.556,55.796 37.194,59.748 41.667,59.748C46.139,59.748 49.778,55.796 49.778,50.938C49.778,46.08 46.139,42.128 41.667,42.128Z" fill="#000000"/>
</svg>
