<svg width="50" height="54" viewBox="0 0 50 54" fill="none" xmlns="http://www.w3.org/2000/svg" xmlns:xlink="http://www.w3.org/1999/xlink">
<path d="M24.837,19.075C23.085,19.075 21.445,19.755 20.203,20.997C18.966,22.239 18.281,23.88 18.281,25.632C18.281,27.384 18.966,29.024 20.203,30.267C21.445,31.503 23.085,32.188 24.837,32.188C26.589,32.188 28.23,31.503 29.472,30.267C30.708,29.024 31.394,27.384 31.394,25.632C31.394,23.88 30.708,22.239 29.472,20.997C28.865,20.386 28.143,19.901 27.348,19.571C26.552,19.241 25.699,19.073 24.837,19.075ZM48.996,32.874L45.164,29.599C45.345,28.485 45.439,27.349 45.439,26.218C45.439,25.087 45.345,23.944 45.164,22.837L48.996,19.562C49.285,19.314 49.492,18.984 49.59,18.615C49.687,18.247 49.67,17.857 49.54,17.499L49.488,17.347C48.433,14.398 46.853,11.664 44.824,9.278L44.718,9.155C44.472,8.866 44.143,8.657 43.776,8.558C43.409,8.459 43.02,8.473 42.662,8.599L37.904,10.292C36.146,8.851 34.189,7.714 32.068,6.923L31.148,1.948C31.079,1.573 30.897,1.229 30.627,0.96C30.357,0.691 30.011,0.51 29.636,0.442L29.478,0.413C26.431,-0.138 23.22,-0.138 20.173,0.413L20.015,0.442C19.64,0.51 19.295,0.691 19.025,0.96C18.755,1.229 18.573,1.573 18.503,1.948L17.578,6.946C15.477,7.744 13.519,8.878 11.783,10.304L6.99,8.599C6.631,8.472 6.242,8.457 5.875,8.556C5.507,8.656 5.179,8.865 4.933,9.155L4.828,9.278C2.802,11.667 1.222,14.399 0.164,17.347L0.111,17.499C-0.153,18.231 0.064,19.052 0.656,19.562L4.535,22.872C4.353,23.974 4.265,25.099 4.265,26.212C4.265,27.337 4.353,28.462 4.535,29.552L0.667,32.862C0.378,33.11 0.171,33.44 0.073,33.809C-0.024,34.177 -0.007,34.566 0.123,34.925L0.175,35.077C1.236,38.024 2.8,40.749 4.839,43.146L4.945,43.269C5.191,43.558 5.52,43.767 5.887,43.866C6.254,43.965 6.643,43.951 7.001,43.825L11.794,42.12C13.541,43.556 15.486,44.692 17.589,45.478L18.515,50.476C18.585,50.85 18.766,51.195 19.036,51.464C19.306,51.733 19.652,51.913 20.027,51.981L20.185,52.011C23.262,52.564 26.413,52.564 29.49,52.011L29.648,51.981C30.023,51.913 30.368,51.733 30.638,51.464C30.908,51.195 31.09,50.85 31.16,50.476L32.08,45.501C34.201,44.704 36.158,43.573 37.915,42.132L42.673,43.825C43.032,43.952 43.421,43.967 43.788,43.867C44.156,43.768 44.484,43.559 44.73,43.269L44.835,43.146C46.874,40.737 48.439,38.024 49.499,35.077L49.552,34.925C49.804,34.198 49.587,33.384 48.996,32.874ZM24.837,35.933C19.148,35.933 14.537,31.321 14.537,25.632C14.537,19.942 19.148,15.331 24.837,15.331C30.527,15.331 35.138,19.942 35.138,25.632C35.138,31.321 30.527,35.933 24.837,35.933Z" fill="#000000"/>
</svg>
