<svg width="28" height="28" viewBox="0 0 28 28" fill="none" xmlns="http://www.w3.org/2000/svg" xmlns:xlink="http://www.w3.org/1999/xlink">
<path d="M26.564,1.23C26.682,1.112 26.775,0.972 26.839,0.819C26.902,0.665 26.935,0.5 26.935,0.333C26.935,0.167 26.902,0.002 26.839,-0.152C26.775,-0.306 26.682,-0.446 26.564,-0.564C26.446,-0.681 26.306,-0.775 26.152,-0.839C25.998,-0.902 25.834,-0.935 25.667,-0.935C25.5,-0.935 25.336,-0.902 25.182,-0.839C25.028,-0.775 24.888,-0.681 24.77,-0.564L13,11.209L1.23,-0.564C1.113,-0.681 0.973,-0.775 0.819,-0.839C0.665,-0.902 0.5,-0.935 0.334,-0.935C0.167,-0.935 0.002,-0.902 -0.152,-0.839C-0.306,-0.775 -0.445,-0.681 -0.563,-0.564C-0.681,-0.446 -0.774,-0.306 -0.838,-0.152C-0.902,0.002 -0.935,0.167 -0.935,0.333C-0.935,0.5 -0.902,0.665 -0.838,0.819C-0.774,0.972 -0.681,1.112 -0.563,1.23L11.209,13L-0.563,24.77C-0.801,25.008 -0.935,25.33 -0.935,25.667C-0.935,26.003 -0.801,26.326 -0.563,26.563C-0.325,26.801 -0.003,26.935 0.334,26.935C0.67,26.935 0.993,26.801 1.23,26.563L13,14.791L24.77,26.563C25.008,26.801 25.331,26.935 25.667,26.935C26.003,26.935 26.326,26.801 26.564,26.563C26.802,26.326 26.935,26.003 26.935,25.667C26.935,25.33 26.802,25.008 26.564,24.77L14.791,13L26.564,1.23Z" clip-rule="evenodd" fill-rule="evenodd" fill="#FFFFFF"/>
</svg>
