<svg width="34" height="40" viewBox="0 0 34 40" fill="none" xmlns="http://www.w3.org/2000/svg" xmlns:xlink="http://www.w3.org/1999/xlink">
<path d="M19.606,6.666C19.606,2.986 22.606,0 26.302,0C27.179,-0.002 28.049,0.169 28.86,0.503C29.672,0.836 30.41,1.327 31.032,1.946C31.654,2.565 32.148,3.3 32.485,4.11C32.823,4.92 32.998,5.789 33,6.666C33,10.348 30,13.334 26.302,13.334C25.415,13.335 24.537,13.16 23.718,12.819C22.9,12.477 22.157,11.977 21.534,11.346L12.264,17.658C12.522,18.944 12.396,20.278 11.9,21.492L22.064,28.172C23.261,27.196 24.759,26.664 26.304,26.666C27.181,26.664 28.051,26.835 28.862,27.169C29.674,27.503 30.411,27.994 31.033,28.613C31.655,29.232 32.149,29.968 32.486,30.778C32.824,31.588 32.998,32.457 33,33.334C33,37.014 30,40 26.302,40C24.53,40.004 22.829,39.304 21.574,38.054C20.318,36.803 19.61,35.106 19.606,33.334C19.604,32.399 19.801,31.475 20.184,30.622L10.1,24C8.879,25.062 7.314,25.645 5.696,25.642C4.818,25.644 3.949,25.473 3.138,25.139C2.326,24.805 1.588,24.315 0.966,23.695C0.345,23.076 -0.149,22.34 -0.487,21.53C-0.824,20.72 -0.998,19.852 -1,18.974C-0.998,18.097 -0.823,17.228 -0.486,16.418C-0.148,15.608 0.345,14.873 0.967,14.254C1.589,13.635 2.327,13.144 3.138,12.811C3.949,12.477 4.819,12.306 5.696,12.308C7.824,12.308 9.716,13.294 10.942,14.83L19.928,8.712C19.714,8.051 19.606,7.361 19.606,6.666Z" clip-rule="evenodd" fill-rule="evenodd" fill="#000000"/>
</svg>
