<svg width="46" height="50" viewBox="0 0 46 50" fill="none" xmlns="http://www.w3.org/2000/svg" xmlns:xlink="http://www.w3.org/1999/xlink">
<path d="M45.354,6.192C45.2,6.045 45.015,5.927 44.81,5.847C44.604,5.767 44.383,5.726 44.16,5.726L44.147,5.726C43.597,5.828 43.109,6.006 42.669,6.252L42.688,6.242C41.948,6.584 41.159,6.966 40.331,7.39C39.43,7.843 38.484,8.217 37.506,8.508L37.385,8.54C36.374,8.867 35.312,9.041 34.24,9.056L34.231,9.056L34.121,9.058C33.304,9.058 32.531,8.886 31.843,8.578L31.874,8.59C30.084,7.79 28.237,7.101 26.345,6.528L26.008,6.438C24.316,5.962 22.554,5.723 20.784,5.728L20.641,5.728L20.648,5.728C16.641,5.89 12.734,6.916 9.246,8.724L9.371,8.664C8.495,9.06 7.877,9.366 7.474,9.592L7.073,6.91C7.755,6.371 8.233,5.649 8.438,4.847C8.644,4.045 8.566,3.204 8.217,2.445C7.868,1.685 7.266,1.046 6.495,0.618C5.724,0.19 4.825,-0.005 3.926,0.061C3.027,0.128 2.174,0.452 1.489,0.987C0.803,1.522 0.32,2.241 0.109,3.042C-0.102,3.843 -0.031,4.684 0.313,5.445C0.656,6.207 1.255,6.85 2.022,7.282L2.04,7.292L7.823,46.062C7.996,47.192 9.047,48.052 10.317,48.054C10.44,48.054 10.563,48.046 10.681,48.032L10.668,48.034C10.998,47.995 11.317,47.896 11.605,47.743C11.894,47.591 12.146,47.387 12.348,47.145C12.55,46.903 12.698,46.627 12.782,46.333C12.867,46.038 12.887,45.732 12.841,45.43L12.843,45.442L10.517,29.86C13.857,28.159 17.578,27.175 21.397,26.982L21.465,26.98L21.484,26.98C22.84,26.98 24.148,27.176 25.37,27.54L25.281,27.518C26.384,27.819 27.451,28.225 28.461,28.73L28.376,28.69C29.195,29.112 30.154,29.508 31.153,29.828L31.28,29.864C32.264,30.2 33.401,30.396 34.586,30.404L34.59,30.404C38.124,30.203 41.549,29.212 44.566,27.518L44.471,27.568C44.877,27.388 45.223,27.164 45.523,26.894C45.764,26.63 45.883,26.291 45.856,25.948L45.856,25.952L45.856,7.282C45.856,7.08 45.812,6.879 45.725,6.692C45.639,6.506 45.512,6.337 45.352,6.196L45.354,6.192Z" fill="#000000"/>
</svg>
