<svg width="28" height="40" viewBox="0 0 28 40" fill="none" xmlns="http://www.w3.org/2000/svg" xmlns:xlink="http://www.w3.org/1999/xlink">
<path d="M14,18.869C12.674,18.869 11.402,18.341 10.464,17.402C9.527,16.463 9,15.189 9,13.86C9,12.532 9.527,11.258 10.464,10.319C11.402,9.38 12.674,8.852 14,8.852C15.326,8.852 16.598,9.38 17.536,10.319C18.473,11.258 19,12.532 19,13.86C19,14.518 18.871,15.169 18.619,15.777C18.368,16.385 18,16.937 17.536,17.402C17.071,17.867 16.52,18.236 15.913,18.488C15.307,18.739 14.657,18.869 14,18.869ZM14,-0.163C10.287,-0.163 6.726,1.314 4.101,3.944C1.475,6.574 0,10.141 0,13.86C0,24.378 14,39.905 14,39.905C14,39.905 28,24.378 28,13.86C28,10.141 26.525,6.574 23.899,3.944C21.274,1.314 17.713,-0.163 14,-0.163Z" fill="#000000"/>
</svg>
