<svg width="52" height="50" viewBox="0 0 52 50" fill="none" xmlns="http://www.w3.org/2000/svg" xmlns:xlink="http://www.w3.org/1999/xlink">
<path d="M26,5C22.362,4.999 18.787,5.916 15.633,7.659C12.479,9.402 9.855,11.91 8.024,14.932C6.192,17.955 5.218,21.387 5.197,24.885C5.176,28.383 6.109,31.825 7.904,34.867C9.117,33.351 10.677,32.124 12.462,31.28C14.247,30.436 16.211,29.998 18.2,30L33.8,30C35.789,29.998 37.753,30.436 39.538,31.28C41.323,32.124 42.883,33.351 44.096,34.867C45.891,31.825 46.824,28.383 46.803,24.885C46.782,21.387 45.808,17.955 43.976,14.932C42.145,11.91 39.521,9.402 36.367,7.659C33.213,5.916 29.638,4.999 26,5ZM46.652,40.19C50.128,35.832 52.008,30.492 52,25C52,11.192 40.36,0 26,0C11.64,0 0,11.192 0,25C-0.009,30.492 1.872,35.832 5.348,40.19L5.335,40.235L6.258,41.267C8.697,44.009 11.724,46.209 15.133,47.717C18.541,49.224 22.248,50.003 26,50C31.271,50.009 36.419,48.47 40.755,45.587C42.603,44.359 44.279,42.908 45.742,41.267L46.665,40.235L46.652,40.19ZM26,10C23.931,10 21.947,10.79 20.485,12.197C19.022,13.603 18.2,15.511 18.2,17.5C18.2,19.489 19.022,21.397 20.485,22.803C21.947,24.21 23.931,25 26,25C28.069,25 30.053,24.21 31.515,22.803C32.978,21.397 33.8,19.489 33.8,17.5C33.8,15.511 32.978,13.603 31.515,12.197C30.053,10.79 28.069,10 26,10Z" clip-rule="evenodd" fill-rule="evenodd" fill="#CAD9FF"/>
</svg>
