<svg width="28" height="40" viewBox="0 0 28 40" fill="none" xmlns="http://www.w3.org/2000/svg" xmlns:xlink="http://www.w3.org/1999/xlink">
<path d="M15.5,33.92L15.5,40L12.5,40L12.5,33.92C9.066,33.55 5.891,31.924 3.583,29.355C1.276,26.785 0,23.453 0,20L0,16L3,16L3,20C3,22.917 4.159,25.715 6.222,27.778C8.285,29.841 11.083,31 14,31C16.917,31 19.715,29.841 21.778,27.778C23.841,25.715 25,22.917 25,20L25,16L28,16L28,20C28,23.453 26.724,26.785 24.417,29.355C22.109,31.924 18.934,33.55 15.5,33.92ZM6,8C6,5.878 6.843,3.843 8.343,2.343C9.843,0.843 11.878,0 14,0C16.122,0 18.157,0.843 19.657,2.343C21.157,3.843 22,5.878 22,8L22,20C22,22.122 21.157,24.157 19.657,25.657C18.157,27.157 16.122,28 14,28C11.878,28 9.843,27.157 8.343,25.657C6.843,24.157 6,22.122 6,20L6,8Z" clip-rule="evenodd" fill-rule="evenodd" fill="#000000"/>
</svg>
