<svg width="60" height="60" viewBox="0 0 60 60" fill="none" xmlns="http://www.w3.org/2000/svg" xmlns:xlink="http://www.w3.org/1999/xlink">
<path d="M60,19.091L60,43.636C60,46.636 57.3,49.091 54,49.091L12,49.091L0,60L0,10.909C0,7.909 2.7,5.455 6,5.455L36.3,5.455C36,6.273 36,7.364 36,8.182C36,9 36,10.091 36.3,10.909L6,10.909L6,43.636L54,43.636L54,21.545C56.1,21.273 58.2,20.182 60,19.091ZM42,8.182C42,12.818 45.9,16.364 51,16.364C56.1,16.364 60,12.818 60,8.182C60,3.545 56.1,0 51,0C45.9,0 42,3.545 42,8.182Z" fill="#000000"/>
</svg>
