<svg width="34" height="26" viewBox="0 0 34 26" fill="none" xmlns="http://www.w3.org/2000/svg" xmlns:xlink="http://www.w3.org/1999/xlink">
<path d="M10,20.34L3.06,13.4C2.686,13.026 2.179,12.816 1.65,12.816C1.121,12.816 0.614,13.026 0.24,13.4C-0.134,13.774 -0.344,14.281 -0.344,14.81C-0.344,15.072 -0.293,15.331 -0.192,15.573C-0.092,15.815 0.055,16.035 0.24,16.22L8.6,24.58C9.38,25.36 10.64,25.36 11.42,24.58L32.58,3.42C32.954,3.046 33.164,2.539 33.164,2.01C33.164,1.481 32.954,0.974 32.58,0.6C32.206,0.226 31.699,0.016 31.17,0.016C30.641,0.016 30.134,0.226 29.76,0.6L10,20.34Z" fill="#FFF9F9"/>
</svg>
