<svg width="22" height="38" viewBox="0 0 22 38" fill="none" xmlns="http://www.w3.org/2000/svg" xmlns:xlink="http://www.w3.org/1999/xlink">
<path d="M13.136,2.375L10.879,16.453L19.054,16.486L7.927,35.572L10.183,20.083L2.009,20.049L13.136,2.375ZM13.137,0C13.083,0 13.029,0.002 12.976,0.007C12.623,0.041 12.389,0.181 12.112,0.403C11.955,0.526 11.815,0.675 11.693,0.846C11.657,0.897 11.622,0.95 11.59,1.005L0.384,18.617C-0.059,19.337 -0.124,20.288 0.216,21.082C0.556,21.877 1.242,22.38 1.995,22.387L7.768,22.437L5.953,35.135C5.78,36.227 6.27,37.314 7.133,37.752C7.383,37.88 7.653,37.946 7.926,37.946C8.555,37.946 9.071,37.597 9.459,36.966L20.679,17.881C21.122,17.161 21.186,16.209 20.847,15.416C20.507,14.621 19.821,14.118 19.068,14.111L13.295,14.099L15.091,2.934C15.129,2.751 15.148,2.563 15.148,2.375C15.148,1.09 14.286,0.043 13.208,0.001C13.184,0 13.161,0 13.137,0L13.137,0Z" fill="url(#pf_0_57_133)"/>
<defs>
<linearGradient id="pf_0_57_133" x1="10.531" y1="0" x2="10.531" y2="37.946" gradientUnits="userSpaceOnUse">
<stop stop-color="#FF4C00"/>
<stop offset="1" stop-color="#FFA800"/>
</linearGradient>
</defs>
</svg>
