<svg width="110" height="110" viewBox="0 0 110 110" fill="none" xmlns="http://www.w3.org/2000/svg" xmlns:xlink="http://www.w3.org/1999/xlink">
<path d="M26.5,40.75L28.5,40.751L28.5,40.75L26.5,40.75ZM26.5,2.75L26.5,0.75L24.5,0.75L24.5,2.75L26.5,2.75ZM83.5,2.75L85.5,2.75L85.5,0.75L83.5,0.75L83.5,2.75ZM2.75,12.25L2.75,10.25L0.75,10.25L0.75,12.25L2.75,12.25ZM107.25,12.25L109.25,12.25L109.25,10.25L107.25,10.25L107.25,12.25ZM21.75,88.25L21.75,86.25L19.75,86.25L19.75,88.25L21.75,88.25ZM21.75,107.25L19.75,107.25L19.75,109.25L21.75,109.25L21.75,107.25ZM76.375,45.5L76.375,43.5L76.375,45.5ZM45.5,76.375L43.5,76.375L45.5,76.375ZM107.25,76.375L105.25,76.375L107.25,76.375ZM71.625,85.875L70.211,87.289L71.625,88.703L73.039,87.289L71.625,85.875ZM47.602,66.204C42.091,64.602 37.25,61.254 33.805,56.664L30.606,59.065C34.57,64.348 40.143,68.201 46.485,70.045L47.602,66.204ZM33.805,56.664C30.36,52.074 28.499,46.489 28.5,40.751L24.5,40.749C24.498,47.355 26.641,53.782 30.606,59.065L33.805,56.664ZM28.5,40.75L28.5,2.75L24.5,2.75L24.5,40.75L28.5,40.75ZM26.5,4.75L83.5,4.75L83.5,0.75L26.5,0.75L26.5,4.75ZM81.5,2.75L81.5,45.5L85.5,45.5L85.5,2.75L81.5,2.75ZM26.5,10.25L2.75,10.25L2.75,14.25L26.5,14.25L26.5,10.25ZM0.75,12.25L0.75,31.25L4.75,31.25L4.75,12.25L0.75,12.25ZM0.75,31.25C0.75,37.71 3.069,43.001 6.939,46.67C10.793,50.324 16.055,52.25 21.75,52.25L21.75,48.25C16.952,48.25 12.715,46.635 9.691,43.768C6.685,40.917 4.75,36.708 4.75,31.25L0.75,31.25ZM21.75,52.25L26.5,52.25L26.5,48.25L21.75,48.25L21.75,52.25ZM93.612,51.652C102.62,49.569 109.25,42.183 109.25,31.25L105.25,31.25C105.25,40.296 99.929,46.086 92.711,47.755L93.612,51.652ZM109.25,31.25L109.25,12.25L105.25,12.25L105.25,31.25L109.25,31.25ZM107.25,10.25L83.5,10.25L83.5,14.25L107.25,14.25L107.25,10.25ZM45.5,86.25L21.75,86.25L21.75,90.25L45.5,90.25L45.5,86.25ZM19.75,88.25L19.75,107.25L23.75,107.25L23.75,88.25L19.75,88.25ZM21.75,109.25L76.375,109.25L76.375,105.25L21.75,105.25L21.75,109.25ZM76.375,43.5C67.656,43.5 59.294,46.964 53.129,53.129L55.957,55.957C61.372,50.542 68.717,47.5 76.375,47.5L76.375,43.5ZM53.129,53.129C46.964,59.294 43.5,67.656 43.5,76.375L47.5,76.375C47.5,68.717 50.542,61.372 55.957,55.957L53.129,53.129ZM43.5,76.375C43.5,85.094 46.964,93.456 53.129,99.621L55.957,96.793C50.542,91.378 47.5,84.033 47.5,76.375L43.5,76.375ZM53.129,99.621C59.294,105.786 67.656,109.25 76.375,109.25L76.375,105.25C68.717,105.25 61.372,102.208 55.957,96.793L53.129,99.621ZM76.375,109.25C85.094,109.25 93.456,105.786 99.621,99.621L96.793,96.793C91.378,102.208 84.033,105.25 76.375,105.25L76.375,109.25ZM99.621,99.621C105.786,93.456 109.25,85.094 109.25,76.375L105.25,76.375C105.25,84.033 102.208,91.378 96.793,96.793L99.621,99.621ZM109.25,76.375C109.25,67.656 105.786,59.294 99.621,53.129L96.793,55.957C102.208,61.372 105.25,68.717 105.25,76.375L109.25,76.375ZM99.621,53.129C93.456,46.964 85.094,43.5 76.375,43.5L76.375,47.5C84.033,47.5 91.378,50.542 96.793,55.957L99.621,53.129ZM91.586,63.086L70.211,84.461L73.039,87.289L94.414,65.914L91.586,63.086ZM73.039,84.461L61.164,72.586L58.336,75.414L70.211,87.289L73.039,84.461ZM45.582,69.476C42.1,71.224 39.172,73.905 37.127,77.22L40.532,79.32C42.187,76.636 44.557,74.466 47.375,73.052L45.582,69.476ZM37.127,77.22C35.082,80.536 33.999,84.355 34,88.25L38,88.25C37.999,85.096 38.876,82.004 40.532,79.32L37.127,77.22Z" fill="url(#ps_0_130_24)"/>
<defs>
<linearGradient id="ps_0_130_24" x1="55" y1="2.75" x2="55" y2="107.25" gradientUnits="userSpaceOnUse">
<stop stop-color="#FF9900"/>
<stop offset="1" stop-color="#FFF500"/>
</linearGradient>
</defs>
</svg>
