<svg width="40" height="40" viewBox="0 0 40 40" fill="none" xmlns="http://www.w3.org/2000/svg" xmlns:xlink="http://www.w3.org/1999/xlink">
<path d="M40,12.465L40,28.491C40,30.45 38.2,32.053 36,32.053L8,32.053L0,39.176L0,7.123C0,5.164 1.8,3.561 4,3.561L24.2,3.561C24,4.096 24,4.808 24,5.342C24,5.876 24,6.589 24.2,7.123L4,7.123L4,28.491L36,28.491L36,14.068C37.4,13.89 38.8,13.177 40,12.465ZM28,5.342C28,8.369 30.6,10.684 34,10.684C37.4,10.684 40,8.369 40,5.342C40,2.315 37.4,0 34,0C30.6,0 28,2.315 28,5.342Z" fill="#000000"/>
</svg>
