<svg width="44" height="44" viewBox="0 0 44 44" fill="none" xmlns="http://www.w3.org/2000/svg" xmlns:xlink="http://www.w3.org/1999/xlink">
<path d="M41.58,30.262C38.573,30.262 35.664,29.773 32.951,28.893C32.526,28.749 32.069,28.728 31.632,28.832C31.196,28.935 30.797,29.16 30.482,29.48L26.644,34.296C19.727,30.996 13.249,24.762 9.802,17.6L14.569,13.542C15.229,12.858 15.424,11.904 15.156,11.049C14.251,8.336 13.787,5.427 13.787,2.42C13.787,1.1 12.687,0 11.367,0L2.909,0C1.589,0 0,0.587 0,2.42C0,25.129 18.896,44 41.58,44C43.316,44 44,42.46 44,41.116L44,32.682C44,31.362 42.9,30.262 41.58,30.262Z" fill="#000000"/>
</svg>
