<svg width="48" height="48" viewBox="0 0 48 48" fill="none" xmlns="http://www.w3.org/2000/svg" xmlns:xlink="http://www.w3.org/1999/xlink">
<path d="M31,22C31.796,22 32.559,21.684 33.121,21.121C33.684,20.559 34,19.796 34,19C34,18.204 33.684,17.441 33.121,16.879C32.559,16.316 31.796,16 31,16C30.204,16 29.441,16.316 28.879,16.879C28.316,17.441 28,18.204 28,19C28,19.796 28.316,20.559 28.879,21.121C29.441,21.684 30.204,22 31,22ZM20,19C20,19.796 19.684,20.559 19.121,21.121C18.559,21.684 17.796,22 17,22C16.204,22 15.441,21.684 14.879,21.121C14.316,20.559 14,19.796 14,19C14,18.204 14.316,17.441 14.879,16.879C15.441,16.316 16.204,16 17,16C17.796,16 18.559,16.316 19.121,16.879C19.684,17.441 20,18.204 20,19ZM12.656,30.26C12.984,30.037 13.387,29.953 13.776,30.026C14.166,30.099 14.511,30.323 14.736,30.65L14.754,30.674L14.842,30.792C14.926,30.9 15.062,31.064 15.248,31.268C15.622,31.674 16.192,32.228 16.964,32.782C18.5,33.888 20.824,35 24,35C27.176,35 29.5,33.888 31.036,32.782C31.808,32.228 32.38,31.674 32.752,31.268C32.927,31.078 33.092,30.88 33.248,30.674L33.262,30.654C33.486,30.325 33.832,30.099 34.223,30.025C34.614,29.951 35.018,30.035 35.347,30.259C35.676,30.483 35.902,30.829 35.976,31.22C36.05,31.611 35.966,32.015 35.742,32.344L35.738,32.346L35.738,32.35L35.732,32.356L35.718,32.376L35.674,32.438L35.522,32.638C35.343,32.864 35.157,33.083 34.962,33.296C34.306,34.01 33.577,34.653 32.788,35.216C30.848,36.614 27.924,38 24,38C20.076,38 17.152,36.612 15.212,35.218C14.422,34.654 13.693,34.009 13.036,33.294C12.77,33.001 12.519,32.696 12.284,32.378L12.268,32.358L12.264,32.35L12.262,32.346L12.26,32.344C12.036,32.015 11.952,31.611 12.026,31.22C12.101,30.829 12.327,30.484 12.656,30.26ZM24,0C10.746,0 0,10.746 0,24C0,37.254 10.746,48 24,48C37.254,48 48,37.254 48,24C48,10.746 37.254,0 24,0ZM3,24C3,12.402 12.402,3 24,3C35.598,3 45,12.402 45,24C45,35.598 35.598,45 24,45C12.402,45 3,35.598 3,24Z" fill="#000000"/>
</svg>
