<svg width="52" height="52" viewBox="0 0 52 52" fill="none" xmlns="http://www.w3.org/2000/svg" xmlns:xlink="http://www.w3.org/1999/xlink">
<path d="M0.055,27.085C0.631,40.916 12.03,52 26,52C39.97,52 51.369,40.916 51.945,27.085C51.979,26.998 51.998,26.906 52,26.812C52,26.754 51.979,26.704 51.967,26.65C51.972,26.432 52,26.219 52,26C52,11.664 40.336,0 26,0C11.664,0 0,11.664 0,26C0,26.219 0.028,26.432 0.033,26.65C0.021,26.704 0,26.754 0,26.812C0,26.91 0.024,26.999 0.055,27.085ZM40.497,36.956C38.289,36.039 35.994,35.347 33.647,34.89C33.904,32.529 34.055,30.077 34.102,27.627L42.195,27.627C42.047,30.964 41.454,34.115 40.497,36.956ZM43.818,27.625L50.292,27.625C50.006,32.049 48.509,36.31 45.965,39.941C44.701,39.052 43.366,38.269 41.972,37.601C43.02,34.564 43.665,31.194 43.818,27.625ZM20.132,36.215C22.073,35.909 24.035,35.753 26,35.75C27.989,35.75 29.954,35.916 31.866,36.215C30.739,44.884 28.275,50.375 26,50.375C23.725,50.375 21.261,44.884 20.132,36.215ZM22.601,49.829C18.13,48.396 14.349,44.189 12.067,38.48C14.157,37.606 16.329,36.943 18.551,36.502C19.297,42.183 20.66,47.133 22.601,49.829ZM19.945,17.402C21.948,17.714 23.973,17.872 26,17.875C28.027,17.872 30.052,17.714 32.055,17.402C32.334,20.035 32.5,22.908 32.5,26L19.5,26C19.5,22.908 19.666,20.035 19.945,17.402ZM32.476,27.625C32.437,29.954 32.296,32.281 32.053,34.598C30.05,34.286 28.027,34.128 26,34.125C23.973,34.128 21.948,34.286 19.945,34.598C19.702,32.281 19.561,29.954 19.523,27.625L32.476,27.625ZM33.451,36.502C35.732,36.961 37.908,37.627 39.934,38.48C37.653,44.189 33.872,48.396 29.401,49.829C31.34,47.133 32.703,42.183 33.451,36.502ZM34.125,26C34.125,23.017 33.959,19.994 33.647,17.111C36.052,16.637 38.353,15.941 40.497,15.046C41.608,18.343 42.25,22.058 42.25,26L34.125,26ZM33.451,15.498C32.703,9.817 31.341,4.865 29.399,2.171C33.87,3.604 37.651,7.811 39.933,13.52C37.844,14.395 35.672,15.057 33.451,15.498ZM31.868,15.785C29.954,16.084 27.989,16.25 26,16.25C24.011,16.25 22.046,16.084 20.132,15.785C21.261,7.116 23.725,1.625 26,1.625C28.275,1.625 30.739,7.116 31.868,15.785ZM18.549,15.498C16.328,15.056 14.155,14.394 12.066,13.52C14.347,7.811 18.128,3.604 22.599,2.171C20.66,4.867 19.297,9.817 18.549,15.498ZM18.353,17.111C18.035,20.064 17.876,23.031 17.875,26L9.75,26C9.75,22.058 10.392,18.343 11.503,15.044C13.647,15.941 15.948,16.635 18.353,17.111ZM17.898,27.625C17.945,30.076 18.096,32.528 18.353,34.89C15.948,35.365 13.647,36.06 11.503,36.956C10.546,34.115 9.953,30.964 9.805,27.625L17.898,27.625ZM10.026,37.601C8.634,38.27 7.299,39.052 6.035,39.941C3.491,36.31 1.994,32.049 1.708,27.625L8.182,27.625C8.335,31.194 8.98,34.564 10.026,37.601ZM7.009,41.243C8.146,40.442 9.345,39.732 10.595,39.122C12.226,43.16 14.575,46.512 17.397,48.779C13.325,47.237 9.739,44.635 7.009,41.243ZM34.603,48.778C37.427,46.512 39.773,43.158 41.405,39.12C42.689,39.744 43.878,40.462 44.991,41.241C42.262,44.634 38.675,47.236 34.603,48.778ZM43.875,26C43.875,21.829 43.18,17.896 41.974,14.399C43.404,13.713 44.733,12.925 45.966,12.059C48.836,16.141 50.376,21.01 50.375,26L43.875,26ZM44.993,10.757C43.88,11.536 42.69,12.254 41.407,12.878C39.775,8.84 37.427,5.486 34.604,3.221C38.676,4.764 42.262,7.366 44.993,10.757ZM17.397,3.222C14.573,5.488 12.226,8.842 10.595,12.88C9.345,12.268 8.146,11.559 7.009,10.757C9.738,7.365 13.325,4.764 17.397,3.222ZM6.035,12.059C7.299,12.948 8.633,13.731 10.026,14.399C8.755,18.134 8.113,22.055 8.125,26L1.625,26C1.625,20.816 3.265,16.014 6.035,12.059Z" fill="url(#pf_0_165_193)"/>
<defs>
<linearGradient id="pf_0_165_193" x1="55" y1="38" x2="0" y2="23" gradientUnits="userSpaceOnUse">
<stop stop-color="#0D54D1"/>
<stop offset="1" stop-color="#FA00FF"/>
</linearGradient>
</defs>
</svg>
