<svg width="22" height="38" viewBox="0 0 22 38" fill="none" xmlns="http://www.w3.org/2000/svg" xmlns:xlink="http://www.w3.org/1999/xlink">
<path d="M12.604,2.402L10.348,16.48L18.523,16.513L7.396,35.598L9.652,20.11L1.478,20.076L12.604,2.402ZM12.606,0.027C12.552,0.027 12.498,0.029 12.445,0.034C12.092,0.068 11.858,0.208 11.581,0.429C11.424,0.553 11.283,0.702 11.162,0.872C11.126,0.923 11.091,0.976 11.059,1.031L-0.147,18.644C-0.59,19.364 -0.655,20.315 -0.315,21.109C0.025,21.904 0.711,22.407 1.464,22.414L7.237,22.463L5.422,35.162C5.249,36.253 5.739,37.341 6.602,37.779C6.852,37.907 7.122,37.973 7.395,37.973C8.023,37.973 8.54,37.624 8.928,36.993L20.148,17.908C20.59,17.187 20.655,16.236 20.315,15.442C19.976,14.648 19.29,14.144 18.537,14.138L12.764,14.126L14.56,2.96C14.598,2.778 14.617,2.59 14.617,2.402C14.617,1.117 13.755,0.069 12.677,0.028C12.653,0.027 12.63,0.027 12.606,0.027L12.606,0.027Z" fill="url(#pf_0_96_595)"/>
<defs>
<linearGradient id="pf_0_96_595" x1="10" y1="0.027" x2="10" y2="37.973" gradientUnits="userSpaceOnUse">
<stop stop-color="#FF4C00"/>
<stop offset="1" stop-color="#FFA800"/>
</linearGradient>
</defs>
</svg>
