<svg width="36" height="36" viewBox="0 0 36 36" fill="none" xmlns="http://www.w3.org/2000/svg" xmlns:xlink="http://www.w3.org/1999/xlink">
<path d="M33.9,36C29.733,36 25.617,35.092 21.55,33.276C17.483,31.46 13.783,28.885 10.45,25.55C7.117,22.215 4.542,18.515 2.726,14.45C0.91,10.385 0.001,6.268 0,2.1C0,1.5 0.2,1 0.6,0.6C1,0.2 1.5,0 2.1,0L10.2,0C10.667,0 11.083,0.159 11.45,0.476C11.817,0.793 12.033,1.168 12.1,1.6L13.4,8.6C13.467,9.133 13.45,9.583 13.35,9.95C13.25,10.317 13.067,10.633 12.8,10.9L7.95,15.8C8.617,17.033 9.408,18.225 10.324,19.374C11.24,20.523 12.249,21.632 13.35,22.7C14.383,23.733 15.467,24.692 16.6,25.576C17.733,26.46 18.933,27.268 20.2,28L24.9,23.3C25.2,23 25.592,22.775 26.076,22.626C26.56,22.477 27.035,22.435 27.5,22.5L34.4,23.9C34.867,24.033 35.25,24.275 35.55,24.626C35.85,24.977 36,25.368 36,25.8L36,33.9C36,34.5 35.8,35 35.4,35.4C35,35.8 34.5,36 33.9,36Z" fill="#000000"/>
</svg>
