<svg width="32" height="36" viewBox="0 0 32 36" fill="none" xmlns="http://www.w3.org/2000/svg" xmlns:xlink="http://www.w3.org/1999/xlink">
<path d="M6,6.333L6,4.333L6,6.333ZM26,6.333L26,4.333L26,6.333ZM2.667,29.667L0.667,29.667L2.667,29.667ZM24.667,3C24.667,1.895 23.771,1 22.667,1C21.562,1 20.667,1.895 20.667,3L24.667,3ZM20.667,9.667C20.667,10.771 21.562,11.667 22.667,11.667C23.771,11.667 24.667,10.771 24.667,9.667L20.667,9.667ZM11.333,3C11.333,1.895 10.438,1 9.333,1C8.229,1 7.333,1.895 7.333,3L11.333,3ZM7.333,9.667C7.333,10.771 8.229,11.667 9.333,11.667C10.438,11.667 11.333,10.771 11.333,9.667L7.333,9.667ZM2.667,14.333C1.562,14.333 0.667,15.229 0.667,16.333C0.667,17.438 1.562,18.333 2.667,18.333L2.667,14.333ZM29.333,18.333C30.438,18.333 31.333,17.438 31.333,16.333C31.333,15.229 30.438,14.333 29.333,14.333L29.333,18.333ZM14.333,21C13.229,21 12.333,21.895 12.333,23C12.333,24.105 13.229,25 14.333,25L14.333,21ZM16,23L18,23C18,21.895 17.104,21 16,21L16,23ZM14,28C14,29.105 14.895,30 16,30C17.104,30 18,29.105 18,28L14,28ZM4.667,9.667C4.667,9.313 4.807,8.974 5.057,8.724L2.229,5.895C1.228,6.896 0.667,8.252 0.667,9.667L4.667,9.667ZM5.057,8.724C5.307,8.474 5.646,8.333 6,8.333L6,4.333C4.585,4.333 3.229,4.895 2.229,5.895L5.057,8.724ZM6,8.333L26,8.333L26,4.333L6,4.333L6,8.333ZM26,8.333C26.354,8.333 26.693,8.474 26.943,8.724L29.771,5.895C28.771,4.895 27.414,4.333 26,4.333L26,8.333ZM26.943,8.724C27.193,8.974 27.333,9.313 27.333,9.667L31.333,9.667C31.333,8.252 30.771,6.896 29.771,5.895L26.943,8.724ZM27.333,9.667L27.333,29.667L31.333,29.667L31.333,9.667L27.333,9.667ZM27.333,29.667C27.333,30.02 27.193,30.359 26.943,30.609L29.771,33.438C30.771,32.438 31.333,31.081 31.333,29.667L27.333,29.667ZM26.943,30.609C26.693,30.86 26.354,31 26,31L26,35C27.414,35 28.771,34.438 29.771,33.438L26.943,30.609ZM26,31L6,31L6,35L26,35L26,31ZM6,31C5.646,31 5.307,30.86 5.057,30.609L2.229,33.438C3.229,34.438 4.585,35 6,35L6,31ZM5.057,30.609C4.807,30.359 4.667,30.02 4.667,29.667L0.667,29.667C0.667,31.081 1.228,32.438 2.229,33.438L5.057,30.609ZM4.667,29.667L4.667,9.667L0.667,9.667L0.667,29.667L4.667,29.667ZM20.667,3L20.667,9.667L24.667,9.667L24.667,3L20.667,3ZM7.333,3L7.333,9.667L11.333,9.667L11.333,3L7.333,3ZM2.667,18.333L29.333,18.333L29.333,14.333L2.667,14.333L2.667,18.333ZM14.333,25L16,25L16,21L14.333,21L14.333,25ZM14,23L14,28L18,28L18,23L14,23Z" fill="#000000" fill-opacity="0.67"/>
</svg>
