<svg width="36" height="20" viewBox="0 0 36 20" fill="none" xmlns="http://www.w3.org/2000/svg" xmlns:xlink="http://www.w3.org/1999/xlink">
<path d="M4,4C4,2.895 3.105,2 2,2C0.895,2 0,2.895 0,4L4,4ZM2,14L0,14C0,15.105 0.895,16 2,16L2,14ZM12,16C13.105,16 14,15.105 14,14C14,12.895 13.105,12 12,12L12,16ZM32.012,18.22C32.133,19.317 33.122,20.109 34.22,19.988C35.317,19.867 36.109,18.878 35.988,17.78L32.012,18.22ZM1.57,12.222C1.14,13.239 1.616,14.413 2.634,14.842C3.651,15.272 4.825,14.796 5.254,13.778L1.57,12.222ZM0,4L0,14L4,14L4,4L0,4ZM2,16L12,16L12,12L2,12L2,16ZM35.988,17.78C35.453,12.933 33.626,8.499 30.555,5.251C27.457,1.974 23.179,0 18,0L18,4C22.087,4 25.312,5.526 27.649,7.999C30.013,10.501 31.553,14.067 32.012,18.22L35.988,17.78ZM18,0C11.577,0 4.546,5.176 1.57,12.222L5.254,13.778C7.738,7.896 13.503,4 18,4L18,0Z" fill="#FFFFFF"/>
</svg>
