<svg width="36" height="30" viewBox="0 0 36 30" fill="none" xmlns="http://www.w3.org/2000/svg" xmlns:xlink="http://www.w3.org/1999/xlink">
<path d="M31.583,11.667L9.446,11.667L19.071,3.99C19.62,3.551 19.929,2.955 19.929,2.333C19.929,1.712 19.62,1.116 19.071,0.677C18.522,0.237 17.777,-0.01 17,-0.01C16.223,-0.01 15.478,0.237 14.929,0.677L0.346,12.343C0.08,12.565 -0.128,12.827 -0.267,13.113C-0.558,13.681 -0.558,14.319 -0.267,14.887C-0.128,15.173 0.08,15.435 0.346,15.657L14.929,27.323C15.2,27.542 15.523,27.716 15.878,27.834C16.234,27.952 16.615,28.013 17,28.013C17.385,28.013 17.766,27.952 18.122,27.834C18.477,27.716 18.8,27.542 19.071,27.323C19.344,27.106 19.561,26.848 19.709,26.564C19.857,26.28 19.934,25.975 19.934,25.667C19.934,25.359 19.857,25.054 19.709,24.769C19.561,24.485 19.344,24.227 19.071,24.01L9.446,16.333L31.583,16.333C32.357,16.333 33.099,16.088 33.646,15.65C34.193,15.212 34.5,14.619 34.5,14C34.5,13.381 34.193,12.788 33.646,12.35C33.099,11.913 32.357,11.667 31.583,11.667Z" fill="#000000"/>
</svg>
