<svg width="52" height="50" viewBox="0 0 52 50" fill="none" xmlns="http://www.w3.org/2000/svg" xmlns:xlink="http://www.w3.org/1999/xlink">
<path d="M7.429,7.143C7.429,5.248 8.211,3.432 9.604,2.092C10.997,0.753 12.887,0 14.857,0C16.827,0 18.717,0.753 20.11,2.092C21.503,3.432 22.286,5.248 22.286,7.143C22.286,9.037 21.503,10.854 20.11,12.194C18.717,13.533 16.827,14.286 14.857,14.286C12.887,14.286 10.997,13.533 9.604,12.194C8.211,10.854 7.429,9.037 7.429,7.143ZM32.608,12.8L32.764,12.914C34.34,14.038 36.314,14.516 38.255,14.245C40.196,13.974 41.947,12.975 43.126,11.467C44.304,9.959 44.815,8.064 44.546,6.196C44.277,4.328 43.25,2.637 41.689,1.494C40.129,0.351 38.162,-0.152 36.217,0.094C34.272,0.341 32.507,1.317 31.308,2.81C30.109,4.303 29.573,6.191 29.816,8.062C30.06,9.934 31.063,11.637 32.608,12.8ZM19.567,17.857C20.033,17.008 20.673,16.258 21.448,15.651C22.223,15.045 23.118,14.596 24.077,14.33C25.037,14.063 26.043,13.986 27.035,14.102C28.027,14.219 28.984,14.526 29.849,15.006C30.714,15.486 31.47,16.129 32.071,16.897C32.671,17.664 33.105,18.54 33.346,19.473C33.586,20.405 33.629,21.374 33.471,22.323C33.313,23.271 32.957,24.179 32.426,24.993C31.403,26.558 29.79,27.68 27.925,28.125C26.059,28.57 24.087,28.303 22.423,27.379C20.758,26.456 19.53,24.947 18.998,23.172C18.465,21.396 18.669,19.491 19.567,17.857ZM5.571,17.857L15.489,17.857C14.827,19.67 14.683,21.62 15.071,23.504C15.459,25.388 16.365,27.138 17.695,28.571L16.714,28.571C14.799,28.571 12.931,29.139 11.365,30.199C9.799,31.259 8.612,32.759 7.967,34.493C6.72,34.013 5.552,33.359 4.502,32.554C1.709,30.393 0,27.2 0,23.214C0,21.793 0.587,20.431 1.632,19.426C2.677,18.422 4.094,17.857 5.571,17.857ZM35.286,28.571C39.316,28.571 42.748,31.039 44.033,34.493C45.296,33.996 46.462,33.35 47.498,32.554C50.291,30.393 52,27.2 52,23.214C52,21.793 51.413,20.431 50.368,19.426C49.323,18.422 47.906,17.857 46.429,17.857L36.511,17.857C36.92,18.975 37.143,20.179 37.143,21.429C37.143,24.064 36.132,26.607 34.305,28.571L35.286,28.571ZM40.437,35.457C40.709,36.086 40.857,36.779 40.857,37.5C40.857,41.486 39.152,44.679 36.355,46.839C33.603,48.964 29.911,50 26,50C22.089,50 18.397,48.964 15.645,46.839C12.851,44.679 11.143,41.486 11.143,37.5C11.141,36.796 11.284,36.098 11.563,35.448C11.842,34.797 12.253,34.206 12.77,33.708C13.288,33.21 13.903,32.815 14.58,32.547C15.257,32.278 15.982,32.141 16.714,32.143L35.286,32.143C36.389,32.143 37.468,32.457 38.385,33.048C39.302,33.638 40.017,34.476 40.437,35.457Z" fill="#000000"/>
</svg>
