<svg width="56" height="50" viewBox="0 0 56 50" fill="none" xmlns="http://www.w3.org/2000/svg" xmlns:xlink="http://www.w3.org/1999/xlink">
<path d="M50.596,0.313L4.904,0.313C3.802,0.313 2.746,0.787 1.967,1.631C1.188,2.474 0.75,3.619 0.75,4.813L0.75,45.313C0.75,46.506 1.188,47.65 1.967,48.495C2.746,49.338 3.802,49.813 4.904,49.813L50.596,49.813C51.698,49.813 52.754,49.338 53.533,48.495C54.312,47.65 54.75,46.506 54.75,45.313L54.75,4.813C54.75,3.619 54.312,2.474 53.533,1.631C52.754,0.787 51.698,0.313 50.596,0.313ZM18.612,30.013C19.052,30.37 19.344,30.904 19.421,31.494C19.499,32.085 19.357,32.685 19.027,33.163C18.696,33.64 18.204,33.956 17.659,34.04C17.114,34.124 16.56,33.971 16.119,33.612L7.812,26.863C7.554,26.653 7.344,26.381 7.2,26.069C7.056,25.756 6.981,25.412 6.981,25.063C6.981,24.713 7.056,24.369 7.2,24.056C7.344,23.744 7.554,23.472 7.812,23.262L16.119,16.512C16.56,16.154 17.114,16.001 17.659,16.085C18.204,16.169 18.696,16.485 19.027,16.962C19.357,17.44 19.499,18.04 19.421,18.631C19.344,19.221 19.052,19.754 18.612,20.113L12.518,25.063L18.612,30.013ZM33.9,9.931L25.593,41.431C25.522,41.72 25.398,41.991 25.23,42.228C25.061,42.465 24.851,42.663 24.611,42.811C24.371,42.958 24.106,43.053 23.831,43.088C23.557,43.124 23.279,43.1 23.014,43.018C22.748,42.935 22.501,42.797 22.285,42.609C22.07,42.422 21.891,42.19 21.76,41.927C21.628,41.664 21.546,41.375 21.518,41.078C21.491,40.78 21.519,40.48 21.6,40.194L29.907,8.694C30.067,8.13 30.424,7.658 30.902,7.377C31.38,7.096 31.941,7.029 32.464,7.191C32.987,7.353 33.43,7.731 33.699,8.243C33.967,8.756 34.04,9.362 33.9,9.931ZM47.688,26.863L39.381,33.612C38.94,33.971 38.386,34.124 37.841,34.04C37.296,33.956 36.804,33.64 36.473,33.163C36.143,32.685 36.001,32.085 36.079,31.494C36.156,30.904 36.448,30.37 36.888,30.013L42.982,25.063L36.888,20.113C36.67,19.935 36.486,19.713 36.347,19.459C36.209,19.205 36.117,18.923 36.079,18.631C36.04,18.338 36.055,18.04 36.123,17.754C36.19,17.468 36.309,17.199 36.473,16.962C36.637,16.726 36.842,16.527 37.076,16.376C37.311,16.226 37.571,16.127 37.841,16.085C38.111,16.043 38.386,16.06 38.65,16.133C38.914,16.206 39.163,16.335 39.381,16.512L47.688,23.262C47.946,23.472 48.156,23.744 48.3,24.056C48.444,24.369 48.519,24.713 48.519,25.063C48.519,25.412 48.444,25.756 48.3,26.069C48.156,26.381 47.946,26.653 47.688,26.863Z" fill="#000000"/>
</svg>
