<svg width="28" height="34" viewBox="0 0 28 34" fill="none" xmlns="http://www.w3.org/2000/svg" xmlns:xlink="http://www.w3.org/1999/xlink">
<path d="M27.5,16.251C27.501,16.675 27.392,17.093 27.184,17.463C26.976,17.832 26.676,18.142 26.312,18.362L3.8,32.134C3.42,32.366 2.986,32.493 2.541,32.501C2.096,32.509 1.657,32.399 1.269,32.18C0.885,31.966 0.564,31.652 0.342,31.273C0.119,30.893 0.001,30.461 0,30.021L0,2.48C0.001,2.04 0.119,1.608 0.342,1.229C0.564,0.849 0.885,0.536 1.269,0.321C1.657,0.103 2.096,-0.008 2.541,0C2.986,0.009 3.42,0.136 3.8,0.368L26.312,14.14C26.676,14.359 26.976,14.669 27.184,15.039C27.392,15.409 27.501,15.826 27.5,16.251Z" fill="#FFFFFF"/>
</svg>
