<svg width="36" height="8" viewBox="0 0 36 8" fill="none" xmlns="http://www.w3.org/2000/svg" xmlns:xlink="http://www.w3.org/1999/xlink">
<path d="M4,0C5.061,0 6.078,0.421 6.828,1.172C7.579,1.922 8,2.939 8,4C8,5.061 7.579,6.078 6.828,6.828C6.078,7.579 5.061,8 4,8C2.939,8 1.922,7.579 1.172,6.828C0.421,6.078 0,5.061 0,4C0,2.939 0.421,1.922 1.172,1.172C1.922,0.421 2.939,0 4,0ZM18,0C19.061,0 20.078,0.421 20.828,1.172C21.579,1.922 22,2.939 22,4C22,5.061 21.579,6.078 20.828,6.828C20.078,7.579 19.061,8 18,8C16.939,8 15.922,7.579 15.172,6.828C14.421,6.078 14,5.061 14,4C14,2.939 14.421,1.922 15.172,1.172C15.922,0.421 16.939,0 18,0ZM32,0C33.061,0 34.078,0.421 34.828,1.172C35.579,1.922 36,2.939 36,4C36,5.061 35.579,6.078 34.828,6.828C34.078,7.579 33.061,8 32,8C30.939,8 29.922,7.579 29.172,6.828C28.421,6.078 28,5.061 28,4C28,2.939 28.421,1.922 29.172,1.172C29.922,0.421 30.939,0 32,0Z" fill="#F1EEEE" fill-opacity="0.87"/>
</svg>
