<svg width="56" height="44" viewBox="0 0 56 44" fill="none" xmlns="http://www.w3.org/2000/svg" xmlns:xlink="http://www.w3.org/1999/xlink">
<path d="M56,22C56,22.648 55.754,23.27 55.317,23.728C54.879,24.187 54.286,24.444 53.667,24.444L2.333,24.444C1.714,24.444 1.121,24.187 0.683,23.728C0.246,23.27 0,22.648 0,22C0,21.352 0.246,20.73 0.683,20.272C1.121,19.813 1.714,19.556 2.333,19.556L53.667,19.556C54.286,19.556 54.879,19.813 55.317,20.272C55.754,20.73 56,21.352 56,22ZM2.333,4.889L53.667,4.889C54.286,4.889 54.879,4.631 55.317,4.173C55.754,3.715 56,3.093 56,2.444C56,1.796 55.754,1.174 55.317,0.716C54.879,0.258 54.286,0 53.667,0L2.333,0C1.714,0 1.121,0.258 0.683,0.716C0.246,1.174 0,1.796 0,2.444C0,3.093 0.246,3.715 0.683,4.173C1.121,4.631 1.714,4.889 2.333,4.889ZM53.667,39.111L2.333,39.111C1.714,39.111 1.121,39.369 0.683,39.827C0.246,40.285 0,40.907 0,41.556C0,42.204 0.246,42.826 0.683,43.284C1.121,43.742 1.714,44 2.333,44L53.667,44C54.286,44 54.879,43.742 55.317,43.284C55.754,42.826 56,42.204 56,41.556C56,40.907 55.754,40.285 55.317,39.827C54.879,39.369 54.286,39.111 53.667,39.111Z" fill="#000000" fill-opacity="0.9"/>
</svg>
