<svg width="40" height="36" viewBox="0 0 40 36" fill="none" xmlns="http://www.w3.org/2000/svg" xmlns:xlink="http://www.w3.org/1999/xlink">
<path d="M40,17.998C40,18.68 39.747,19.334 39.297,19.816C38.847,20.298 38.237,20.569 37.6,20.569L8.201,20.569L18.505,31.604C18.956,32.087 19.209,32.742 19.209,33.425C19.209,34.108 18.956,34.763 18.505,35.246C18.054,35.729 17.443,36 16.805,36C16.167,36 15.556,35.729 15.105,35.246L0.706,19.821C0.482,19.582 0.305,19.298 0.183,18.986C0.062,18.673 0,18.338 0,18C0,17.662 0.062,17.327 0.183,17.014C0.305,16.702 0.482,16.418 0.706,16.179L15.105,0.754C15.328,0.515 15.593,0.325 15.885,0.196C16.177,0.067 16.489,0 16.805,0C17.121,0 17.433,0.067 17.725,0.196C18.017,0.325 18.282,0.515 18.505,0.754C18.728,0.993 18.905,1.277 19.026,1.59C19.147,1.902 19.209,2.237 19.209,2.575C19.209,2.913 19.147,3.248 19.026,3.561C18.905,3.873 18.728,4.157 18.505,4.396L8.201,15.427L37.6,15.427C38.237,15.427 38.847,15.698 39.297,16.18C39.747,16.662 40,17.316 40,17.998Z" fill="#000000"/>
</svg>
