<svg width="20" height="20" viewBox="0 0 20 20" fill="none" xmlns="http://www.w3.org/2000/svg" xmlns:xlink="http://www.w3.org/1999/xlink">
<path d="M10,0.667C11.238,0.667 12.425,1.158 13.3,2.033C14.175,2.909 14.667,4.096 14.667,5.333C14.667,6.571 14.175,7.758 13.3,8.633C12.425,9.508 11.238,10 10,10C8.762,10 7.575,9.508 6.7,8.633C5.825,7.758 5.333,6.571 5.333,5.333C5.333,4.096 5.825,2.909 6.7,2.033C7.575,1.158 8.762,0.667 10,0.667ZM10,3C9.381,3 8.788,3.246 8.35,3.683C7.912,4.121 7.667,4.714 7.667,5.333C7.667,5.952 7.912,6.546 8.35,6.983C8.788,7.421 9.381,7.667 10,7.667C10.619,7.667 11.212,7.421 11.65,6.983C12.087,6.546 12.333,5.952 12.333,5.333C12.333,4.714 12.087,4.121 11.65,3.683C11.212,3.246 10.619,3 10,3ZM10,11.167C13.115,11.167 19.333,12.718 19.333,15.833L19.333,19.333L0.667,19.333L0.667,15.833C0.667,12.718 6.885,11.167 10,11.167ZM10,13.383C6.535,13.383 2.883,15.087 2.883,15.833L2.883,17.117L17.117,17.117L17.117,15.833C17.117,15.087 13.465,13.383 10,13.383Z" fill="#000000"/>
</svg>
