<svg width="50" height="54" viewBox="0 0 50 54" fill="none" xmlns="http://www.w3.org/2000/svg" xmlns:xlink="http://www.w3.org/1999/xlink">
<path d="M35.043,35.405C36.65,34.567 38.49,34.09 40.449,34.09L40.455,34.09C40.655,34.09 40.748,33.858 40.601,33.729C38.564,31.954 36.237,30.521 33.715,29.488C33.689,29.475 33.662,29.469 33.635,29.456C37.759,26.549 40.442,21.824 40.442,16.494C40.442,7.664 33.084,0.51 24.007,0.51C14.929,0.51 7.578,7.664 7.578,16.494C7.578,21.824 10.261,26.549 14.391,29.456C14.364,29.469 14.338,29.475 14.311,29.488C11.343,30.706 8.68,32.453 6.389,34.683C4.111,36.89 2.298,39.506 1.05,42.385C-0.178,45.205 -0.84,48.226 -0.902,51.286C-0.904,51.355 -0.892,51.423 -0.866,51.487C-0.84,51.551 -0.801,51.61 -0.752,51.659C-0.702,51.708 -0.643,51.747 -0.578,51.774C-0.512,51.801 -0.442,51.815 -0.371,51.814L3.607,51.814C3.892,51.814 4.131,51.589 4.138,51.312C4.271,46.336 6.323,41.676 9.955,38.144C13.707,34.489 18.701,32.479 24.013,32.479C27.778,32.479 31.391,33.49 34.505,35.385C34.585,35.434 34.677,35.462 34.772,35.465C34.866,35.468 34.96,35.448 35.043,35.405ZM24.013,27.58C20.972,27.58 18.11,26.426 15.952,24.332C14.89,23.304 14.048,22.082 13.475,20.737C12.901,19.392 12.608,17.95 12.611,16.494C12.611,13.536 13.8,10.751 15.952,8.657C18.103,6.562 20.965,5.408 24.013,5.408C27.061,5.408 29.917,6.562 32.075,8.657C33.137,9.685 33.979,10.906 34.552,12.251C35.125,13.597 35.419,15.038 35.415,16.494C35.415,19.453 34.226,22.237 32.075,24.332C29.917,26.426 27.055,27.58 24.013,27.58ZM48.437,42.92L42.859,42.92L42.859,37.506C42.859,37.222 42.62,36.99 42.328,36.99L38.609,36.99C38.317,36.99 38.078,37.222 38.078,37.506L38.078,42.92L32.5,42.92C32.208,42.92 31.969,43.152 31.969,43.436L31.969,47.045C31.969,47.329 32.208,47.561 32.5,47.561L38.078,47.561L38.078,52.975C38.078,53.258 38.317,53.49 38.609,53.49L42.328,53.49C42.62,53.49 42.859,53.258 42.859,52.975L42.859,47.561L48.437,47.561C48.73,47.561 48.969,47.329 48.969,47.045L48.969,43.436C48.969,43.152 48.73,42.92 48.437,42.92Z" fill="#000000"/>
</svg>
