<svg width="34" height="30" viewBox="0 0 34 30" fill="none" xmlns="http://www.w3.org/2000/svg" xmlns:xlink="http://www.w3.org/1999/xlink">
<path d="M32.814,14.439C32.814,14.986 32.607,15.511 32.237,15.898C31.868,16.285 31.367,16.502 30.845,16.502L6.728,16.502L15.181,25.355C15.55,25.743 15.758,26.268 15.758,26.816C15.758,27.364 15.55,27.89 15.181,28.277C14.811,28.664 14.309,28.882 13.786,28.882C13.263,28.882 12.761,28.664 12.392,28.277L0.579,15.902C0.396,15.71 0.25,15.483 0.151,15.232C0.051,14.981 0,14.713 0,14.441C0,14.17 0.051,13.901 0.151,13.65C0.25,13.399 0.396,13.172 0.579,12.98L12.392,0.605C12.575,0.413 12.792,0.261 13.031,0.157C13.271,0.053 13.527,0 13.786,0C14.045,0 14.302,0.053 14.541,0.157C14.78,0.261 14.997,0.413 15.181,0.605C15.364,0.797 15.509,1.025 15.608,1.275C15.707,1.526 15.758,1.795 15.758,2.066C15.758,2.337 15.707,2.606 15.608,2.857C15.509,3.107 15.364,3.335 15.181,3.527L6.728,12.377L30.845,12.377C31.367,12.377 31.868,12.594 32.237,12.981C32.607,13.368 32.814,13.892 32.814,14.439Z" fill="#000000"/>
</svg>
