<svg width="40" height="40" viewBox="0 0 40 40" fill="none" xmlns="http://www.w3.org/2000/svg" xmlns:xlink="http://www.w3.org/1999/xlink">
<path d="M2,38L0.103,37.368C-0.153,38.135 0.078,38.981 0.69,39.511C1.301,40.041 2.171,40.151 2.894,39.789L2,38ZM38,20L38.894,21.789C39.572,21.45 40,20.758 40,20C40,19.242 39.572,18.55 38.894,18.211L38,20ZM2,2L2.894,0.211C2.171,-0.151 1.301,-0.041 0.69,0.489C0.078,1.019 -0.153,1.865 0.103,2.632L2,2ZM20,22C21.105,22 22,21.105 22,20C22,18.895 21.105,18 20,18L20,22ZM6.103,19.368L0.103,37.368L3.897,38.632L9.897,20.632L6.103,19.368ZM2.894,39.789L38.894,21.789L37.106,18.211L1.106,36.211L2.894,39.789ZM38.894,18.211L2.894,0.211L1.106,3.789L37.106,21.789L38.894,18.211ZM0.103,2.632L6.103,20.632L9.897,19.368L3.897,1.368L0.103,2.632ZM8,22L20,22L20,18L8,18L8,22Z" fill="#000000"/>
</svg>
