<svg width="58" height="48" viewBox="0 0 58 48" fill="none" xmlns="http://www.w3.org/2000/svg" xmlns:xlink="http://www.w3.org/1999/xlink">
<path d="M54.136,20.332L13.179,20.332L31.072,5.281C32.502,4.079 32.502,2.105 31.072,0.902C29.642,-0.301 27.332,-0.301 25.902,0.902L1.739,21.226C0.309,22.429 0.309,24.372 1.739,25.575L25.902,45.899C27.332,47.101 29.642,47.101 31.072,45.899C32.502,44.696 32.502,42.753 31.072,41.55L13.179,26.5L54.136,26.5C56.152,26.5 57.802,25.112 57.802,23.416C57.802,21.72 56.152,20.332 54.136,20.332Z" transform="rotate(360 29.235 23.4)" fill="#FFFFFF"/>
</svg>
