<svg width="42" height="44" viewBox="0 0 42 44" fill="none" xmlns="http://www.w3.org/2000/svg" xmlns:xlink="http://www.w3.org/1999/xlink">
<path d="M41.419,5.47C41.279,5.339 41.109,5.234 40.922,5.163C40.735,5.091 40.533,5.055 40.329,5.055L40.317,5.055C39.815,5.146 39.369,5.304 38.967,5.523L38.985,5.514C38.309,5.819 37.589,6.159 36.833,6.537C36.01,6.94 35.146,7.273 34.253,7.532L34.143,7.56C33.22,7.851 32.25,8.006 31.271,8.02L31.263,8.02L31.163,8.022C30.417,8.022 29.711,7.868 29.083,7.594L29.111,7.605C27.477,6.892 25.79,6.279 24.063,5.769L23.755,5.689C22.21,5.265 20.602,5.052 18.985,5.057L18.855,5.057L18.861,5.057C15.203,5.2 11.635,6.115 8.451,7.724L8.565,7.671C7.765,8.023 7.201,8.296 6.833,8.497L6.467,6.109C7.09,5.629 7.526,4.986 7.713,4.272C7.901,3.558 7.83,2.81 7.512,2.133C7.193,1.457 6.643,0.888 5.939,0.507C5.236,0.126 4.415,-0.048 3.594,0.011C2.773,0.07 1.994,0.359 1.368,0.835C0.742,1.312 0.301,1.952 0.109,2.665C-0.084,3.378 -0.019,4.127 0.295,4.805C0.608,5.483 1.154,6.055 1.855,6.44L1.871,6.449L7.151,40.968C7.309,41.975 8.269,42.74 9.429,42.742C9.541,42.742 9.653,42.735 9.761,42.722L9.749,42.724C10.051,42.689 10.342,42.601 10.605,42.465C10.869,42.329 11.099,42.148 11.283,41.933C11.468,41.717 11.603,41.471 11.68,41.209C11.757,40.947 11.775,40.674 11.733,40.406L11.735,40.416L9.611,26.543C12.661,25.028 16.058,24.152 19.545,23.98L19.607,23.979L19.625,23.979C20.863,23.979 22.057,24.153 23.173,24.477L23.091,24.458C24.099,24.726 25.072,25.087 25.995,25.537L25.917,25.501C26.665,25.877 27.541,26.229 28.453,26.514L28.569,26.546C29.467,26.846 30.505,27.02 31.587,27.027L31.591,27.027C34.818,26.848 37.945,25.965 40.699,24.458L40.613,24.502C40.983,24.342 41.299,24.142 41.573,23.902C41.793,23.667 41.902,23.365 41.877,23.06L41.877,23.063L41.877,6.44C41.878,6.26 41.837,6.081 41.758,5.915C41.679,5.749 41.563,5.599 41.417,5.473L41.419,5.47Z" fill="#000000"/>
</svg>
