<svg width="36" height="24" viewBox="0 0 36 24" fill="none" xmlns="http://www.w3.org/2000/svg" xmlns:xlink="http://www.w3.org/1999/xlink">
<path d="M17.541,4.208C22.515,4.208 27.299,6.052 30.904,9.359C31.176,9.615 31.61,9.611 31.877,9.352L34.472,6.825C34.607,6.694 34.683,6.515 34.682,6.33C34.681,6.145 34.603,5.967 34.466,5.837C25.004,-2.912 10.077,-2.912 0.615,5.837C0.477,5.967 0.4,6.145 0.398,6.33C0.397,6.515 0.473,6.694 0.608,6.825L3.204,9.352C3.471,9.612 3.905,9.615 4.176,9.359C7.782,6.052 12.566,4.208 17.541,4.208ZM17.534,12.649C20.249,12.648 22.867,13.672 24.879,15.52C25.151,15.782 25.58,15.777 25.845,15.507L28.42,12.869C28.555,12.73 28.631,12.542 28.629,12.347C28.627,12.152 28.548,11.966 28.409,11.831C22.282,6.049 12.792,6.049 6.665,11.831C6.526,11.966 6.447,12.152 6.445,12.348C6.444,12.543 6.519,12.73 6.655,12.869L9.229,15.507C9.494,15.777 9.923,15.782 10.195,15.52C12.206,13.673 14.821,12.65 17.534,12.649ZM22.583,18.236C22.587,18.446 22.513,18.649 22.378,18.797L18.025,23.707C17.897,23.851 17.723,23.932 17.542,23.932C17.36,23.932 17.186,23.851 17.059,23.707L12.705,18.797C12.57,18.649 12.496,18.446 12.5,18.235C12.504,18.025 12.586,17.825 12.726,17.684C15.506,15.056 19.578,15.056 22.358,17.684C22.498,17.825 22.579,18.025 22.583,18.236Z" clip-rule="evenodd" fill-rule="evenodd" fill="#000000"/>
</svg>
